<svg width="20" height="21" viewBox="0 0 20 21" fill="none" xmlns="http://www.w3.org/2000/svg">
<path d="M18.3337 6.79451C18.3337 7.34451 17.8837 7.79451 17.3337 7.79451H2.66699C2.11699 7.79451 1.66699 7.34451 1.66699 6.79451V6.78618C1.66699 4.87785 3.20866 3.33618 5.11699 3.33618H14.8753C16.7837 3.33618 18.3337 4.88618 18.3337 6.79451Z" fill="#3439CA"/>
<path d="M1.66699 10.0447V14.2197C1.66699 16.128 3.20866 17.6697 5.11699 17.6697H14.8753C16.7837 17.6697 18.3337 16.1197 18.3337 14.2113V10.0447C18.3337 9.49468 17.8837 9.04468 17.3337 9.04468H2.66699C2.11699 9.04468 1.66699 9.49468 1.66699 10.0447ZM6.66699 14.878H5.00033C4.65866 14.878 4.37533 14.5947 4.37533 14.253C4.37533 13.9113 4.65866 13.628 5.00033 13.628H6.66699C7.00866 13.628 7.29199 13.9113 7.29199 14.253C7.29199 14.5947 7.00866 14.878 6.66699 14.878ZM12.0837 14.878H8.75033C8.40866 14.878 8.12533 14.5947 8.12533 14.253C8.12533 13.9113 8.40866 13.628 8.75033 13.628H12.0837C12.4253 13.628 12.7087 13.9113 12.7087 14.253C12.7087 14.5947 12.4253 14.878 12.0837 14.878Z" fill="#3439CA"/>
</svg>
