<svg width="252" height="138" viewBox="0 0 252 138" fill="none" xmlns="http://www.w3.org/2000/svg">
<rect x="0.5" y="0.5" width="251" height="137" rx="4.5" fill="white"/>
<rect x="0.5" y="0.5" width="251" height="137" rx="4.5" stroke="#F1F2F3"/>
<path d="M17.416 42L21.544 30.8H23.4L27.496 42H25.704L24.744 39.264H20.168L19.208 42H17.416ZM20.648 37.92H24.264L22.456 32.816L20.648 37.92ZM28.9939 42V30.48H30.6899V42H28.9939ZM32.8376 42V30.48H34.5336V42H32.8376ZM40.7766 42V30.8H44.6966C45.5713 30.8 46.2966 30.9493 46.8726 31.248C47.4486 31.536 47.8753 31.936 48.1526 32.448C48.4406 32.9493 48.5846 33.52 48.5846 34.16C48.5846 34.768 48.446 35.328 48.1686 35.84C47.902 36.3413 47.4806 36.7413 46.9046 37.04C46.3286 37.3387 45.5926 37.488 44.6966 37.488H42.4726V42H40.7766ZM42.4726 36.096H44.6166C45.4166 36.096 45.9873 35.9253 46.3286 35.584C46.6806 35.232 46.8566 34.7573 46.8566 34.16C46.8566 33.5413 46.6806 33.0613 46.3286 32.72C45.9873 32.368 45.4166 32.192 44.6166 32.192H42.4726V36.096ZM50.197 42V34.064H51.717L51.861 35.568C52.1383 35.0453 52.5223 34.6347 53.013 34.336C53.5143 34.0267 54.117 33.872 54.821 33.872V35.648H54.357C53.8877 35.648 53.4663 35.728 53.093 35.888C52.7303 36.0373 52.437 36.2987 52.213 36.672C51.9997 37.0347 51.893 37.5413 51.893 38.192V42H50.197ZM59.7684 42.192C59.011 42.192 58.3284 42.0213 57.7204 41.68C57.123 41.328 56.6484 40.8427 56.2964 40.224C55.9444 39.5947 55.7684 38.864 55.7684 38.032C55.7684 37.2 55.9444 36.4747 56.2964 35.856C56.659 35.2267 57.1444 34.7413 57.7524 34.4C58.3604 34.048 59.0377 33.872 59.7844 33.872C60.5417 33.872 61.219 34.048 61.8164 34.4C62.4244 34.7413 62.9044 35.2267 63.2564 35.856C63.619 36.4747 63.8004 37.2 63.8004 38.032C63.8004 38.864 63.619 39.5947 63.2564 40.224C62.9044 40.8427 62.4244 41.328 61.8164 41.68C61.2084 42.0213 60.5257 42.192 59.7684 42.192ZM59.7684 40.736C60.1737 40.736 60.547 40.6347 60.8884 40.432C61.2404 40.2293 61.523 39.9307 61.7364 39.536C61.9497 39.1307 62.0564 38.6293 62.0564 38.032C62.0564 37.4347 61.9497 36.9387 61.7364 36.544C61.5337 36.1387 61.2564 35.8347 60.9044 35.632C60.563 35.4293 60.1897 35.328 59.7844 35.328C59.379 35.328 59.0004 35.4293 58.6484 35.632C58.307 35.8347 58.0297 36.1387 57.8164 36.544C57.603 36.9387 57.4964 37.4347 57.4964 38.032C57.4964 38.6293 57.603 39.1307 57.8164 39.536C58.0297 39.9307 58.307 40.2293 58.6484 40.432C58.9897 40.6347 59.363 40.736 59.7684 40.736ZM66.6425 32.56C66.3225 32.56 66.0558 32.464 65.8425 32.272C65.6398 32.0693 65.5385 31.8187 65.5385 31.52C65.5385 31.2213 65.6398 30.976 65.8425 30.784C66.0558 30.5813 66.3225 30.48 66.6425 30.48C66.9625 30.48 67.2238 30.5813 67.4265 30.784C67.6398 30.976 67.7465 31.2213 67.7465 31.52C67.7465 31.8187 67.6398 32.0693 67.4265 32.272C67.2238 32.464 66.9625 32.56 66.6425 32.56ZM64.1145 45.52V44.08H64.7385C65.1118 44.08 65.3785 44 65.5385 43.84C65.6985 43.6907 65.7785 43.4347 65.7785 43.072V34.064H67.4745V43.088C67.4745 43.952 67.2558 44.5707 66.8185 44.944C66.3812 45.328 65.7732 45.52 64.9945 45.52H64.1145ZM73.4246 42.192C72.646 42.192 71.9526 42.0213 71.3446 41.68C70.7473 41.328 70.278 40.8427 69.9366 40.224C69.5953 39.6053 69.4246 38.8853 69.4246 38.064C69.4246 37.232 69.59 36.5013 69.9206 35.872C70.262 35.2427 70.7313 34.752 71.3286 34.4C71.9366 34.048 72.6406 33.872 73.4406 33.872C74.2193 33.872 74.8966 34.048 75.4726 34.4C76.0486 34.7413 76.4966 35.2 76.8166 35.776C77.1366 36.352 77.2966 36.9867 77.2966 37.68C77.2966 37.7867 77.2913 37.904 77.2806 38.032C77.2806 38.1493 77.2753 38.2827 77.2646 38.432H71.0886C71.142 39.2 71.3926 39.7867 71.8406 40.192C72.2993 40.5867 72.8273 40.784 73.4246 40.784C73.9046 40.784 74.3046 40.6773 74.6246 40.464C74.9553 40.24 75.2006 39.9413 75.3606 39.568H77.0566C76.8433 40.3147 76.4166 40.9387 75.7766 41.44C75.1473 41.9413 74.3633 42.192 73.4246 42.192ZM73.4246 35.264C72.8593 35.264 72.358 35.4347 71.9206 35.776C71.4833 36.1067 71.2166 36.608 71.1206 37.28H75.6006C75.5686 36.6613 75.35 36.1707 74.9446 35.808C74.5393 35.4453 74.0326 35.264 73.4246 35.264ZM82.8164 42.192C82.0377 42.192 81.339 42.016 80.7204 41.664C80.1124 41.312 79.6324 40.8267 79.2804 40.208C78.939 39.5787 78.7684 38.8533 78.7684 38.032C78.7684 37.2107 78.939 36.4907 79.2804 35.872C79.6324 35.2427 80.1124 34.752 80.7204 34.4C81.339 34.048 82.0377 33.872 82.8164 33.872C83.7977 33.872 84.619 34.128 85.2804 34.64C85.9524 35.152 86.3844 35.8453 86.5764 36.72H84.8004C84.6937 36.2827 84.459 35.9413 84.0964 35.696C83.7337 35.4507 83.307 35.328 82.8164 35.328C82.4004 35.328 82.0164 35.4347 81.6644 35.648C81.3124 35.8507 81.0297 36.1547 80.8164 36.56C80.603 36.9547 80.4964 37.4453 80.4964 38.032C80.4964 38.6187 80.603 39.1147 80.8164 39.52C81.0297 39.9147 81.3124 40.2187 81.6644 40.432C82.0164 40.6453 82.4004 40.752 82.8164 40.752C83.307 40.752 83.7337 40.6293 84.0964 40.384C84.459 40.1387 84.6937 39.792 84.8004 39.344H86.5764C86.395 40.1973 85.9684 40.8853 85.2964 41.408C84.6244 41.9307 83.7977 42.192 82.8164 42.192ZM91.5875 42C90.8088 42 90.1902 41.8133 89.7315 41.44C89.2728 41.056 89.0435 40.3787 89.0435 39.408V35.488H87.6835V34.064H89.0435L89.2515 32.048H90.7395V34.064H92.9795V35.488H90.7395V39.408C90.7395 39.8453 90.8302 40.1493 91.0115 40.32C91.2035 40.48 91.5288 40.56 91.9875 40.56H92.8995V42H91.5875ZM97.8963 42.192C96.8936 42.192 96.0669 41.9467 95.4163 41.456C94.7656 40.9653 94.3923 40.3147 94.2963 39.504H96.0082C96.0936 39.8667 96.2963 40.1813 96.6163 40.448C96.9363 40.704 97.3576 40.832 97.8802 40.832C98.3923 40.832 98.7656 40.7253 99.0003 40.512C99.2349 40.2987 99.3523 40.0533 99.3523 39.776C99.3523 39.3707 99.1869 39.0987 98.8563 38.96C98.5363 38.8107 98.0883 38.6773 97.5123 38.56C97.0643 38.464 96.6163 38.336 96.1683 38.176C95.7309 38.016 95.3629 37.792 95.0643 37.504C94.7763 37.2053 94.6323 36.8053 94.6323 36.304C94.6323 35.6107 94.8989 35.0347 95.4323 34.576C95.9656 34.1067 96.7123 33.872 97.6723 33.872C98.5576 33.872 99.2723 34.0853 99.8163 34.512C100.371 34.9387 100.696 35.5413 100.792 36.32H99.1603C99.1069 35.9787 98.9469 35.712 98.6803 35.52C98.4243 35.328 98.0776 35.232 97.6403 35.232C97.2136 35.232 96.8829 35.3227 96.6483 35.504C96.4136 35.6747 96.2963 35.8987 96.2963 36.176C96.2963 36.4533 96.4563 36.672 96.7763 36.832C97.1069 36.992 97.5389 37.136 98.0723 37.264C98.6056 37.3813 99.0963 37.52 99.5443 37.68C100.003 37.8293 100.371 38.0533 100.648 38.352C100.926 38.6507 101.064 39.088 101.064 39.664C101.075 40.3893 100.792 40.992 100.216 41.472C99.6509 41.952 98.8776 42.192 97.8963 42.192Z" fill="#2F2B2B" fill-opacity="0.69"/>
<rect x="201" y="19" width="34" height="35" rx="4" fill="#F2F2FF"/>
<path d="M226.457 31.4396C225.673 30.5724 224.363 30.1388 222.462 30.1388H222.241V30.1019C222.241 28.552 222.241 26.6331 218.772 26.6331H217.37C213.901 26.6331 213.901 28.5612 213.901 30.1019V30.148H213.679C211.77 30.148 210.469 30.5816 209.685 31.4489C208.771 32.4637 208.799 33.8291 208.891 34.7609L208.9 34.8254L208.972 35.5758C208.985 35.7139 209.059 35.8387 209.176 35.9147C209.397 36.0595 209.767 36.2982 209.989 36.4215C210.118 36.5045 210.257 36.5783 210.395 36.6521C211.972 37.5193 213.707 38.1006 215.469 38.3866C215.552 39.2538 215.93 40.2686 217.951 40.2686C219.971 40.2686 220.368 39.263 220.432 38.3681C222.314 38.0637 224.132 37.4086 225.774 36.4492C225.829 36.4215 225.866 36.3938 225.912 36.3661C226.278 36.1593 226.658 35.9044 227.004 35.6547C227.109 35.5795 227.175 35.4632 227.189 35.3354L227.204 35.2037L227.25 34.7701C227.259 34.7147 227.259 34.6686 227.269 34.604C227.342 33.6722 227.324 32.3991 226.457 31.4396ZM219.076 37.7592C219.076 38.7371 219.076 38.8847 217.941 38.8847C216.807 38.8847 216.807 38.7095 216.807 37.7684V36.606H219.076V37.7592ZM215.22 30.1388V30.1019C215.22 28.5335 215.22 27.9523 217.37 27.9523H218.772C220.921 27.9523 220.921 28.5428 220.921 30.1019V30.148H215.22V30.1388Z" fill="#363CE2"/>
<path d="M226.258 37.6707C226.584 37.5154 226.959 37.774 226.927 38.1338L226.596 41.7815C226.402 43.6266 225.645 45.5086 221.586 45.5086H214.556C210.497 45.5086 209.74 43.6266 209.547 41.7907L209.232 38.3331C209.2 37.9774 209.567 37.7192 209.892 37.8663C210.944 38.3419 212.884 39.1857 214.083 39.4996C214.234 39.5393 214.357 39.6478 214.423 39.7898C214.983 40.9874 216.198 41.6246 217.951 41.6246C219.688 41.6246 220.917 40.9628 221.479 39.7623C221.546 39.6202 221.668 39.5118 221.82 39.4719C223.093 39.137 225.158 38.1938 226.258 37.6707Z" fill="#363CE2"/>
<path d="M19.55 104V99.35C21.6833 97.5833 23.75 95.8333 25.75 94.1C27.7833 92.3667 29.5833 90.65 31.15 88.95C32.75 87.25 34.0167 85.6 34.95 84C35.9167 82.3667 36.4 80.7833 36.4 79.25C36.4 77.8167 36 76.55 35.2 75.45C34.4333 74.35 33.15 73.8 31.35 73.8C29.5167 73.8 28.1333 74.4 27.2 75.6C26.2667 76.8 25.8 78.25 25.8 79.95H19.6C19.6667 77.3833 20.2333 75.25 21.3 73.55C22.3667 71.8167 23.7833 70.5333 25.55 69.7C27.3167 68.8333 29.3 68.4 31.5 68.4C35.0667 68.4 37.8333 69.3833 39.8 71.35C41.8 73.2833 42.8 75.8 42.8 78.9C42.8 80.8333 42.35 82.7167 41.45 84.55C40.5833 86.3833 39.4333 88.15 38 89.85C36.5667 91.55 35.0167 93.15 33.35 94.65C31.6833 96.1167 30.0667 97.4833 28.5 98.75H43.65V104H19.55ZM63.0703 104.6C59.837 104.6 57.0703 103.85 54.7703 102.35C52.4703 100.817 50.687 98.7 49.4203 96C48.187 93.2667 47.5703 90.1 47.5703 86.5C47.5703 82.9333 48.187 79.7833 49.4203 77.05C50.687 74.3167 52.4703 72.2 54.7703 70.7C57.0703 69.1667 59.837 68.4 63.0703 68.4C66.3036 68.4 69.0703 69.1667 71.3703 70.7C73.6703 72.2 75.437 74.3167 76.6703 77.05C77.937 79.7833 78.5703 82.9333 78.5703 86.5C78.5703 90.1 77.937 93.2667 76.6703 96C75.437 98.7 73.6703 100.817 71.3703 102.35C69.0703 103.85 66.3036 104.6 63.0703 104.6ZM63.0703 98.85C65.7036 98.85 67.8536 97.75 69.5203 95.55C71.187 93.35 72.0203 90.3333 72.0203 86.5C72.0203 82.6667 71.187 79.65 69.5203 77.45C67.8536 75.25 65.7036 74.15 63.0703 74.15C60.4036 74.15 58.237 75.25 56.5703 77.45C54.937 79.65 54.1203 82.6667 54.1203 86.5C54.1203 90.3333 54.937 93.35 56.5703 95.55C58.237 97.75 60.4036 98.85 63.0703 98.85Z" fill="#1E1E1E"/>
</svg>
