<svg width="23" height="23" viewBox="0 0 23 23" fill="none" xmlns="http://www.w3.org/2000/svg">
<path d="M19.4568 6.43963C18.6726 5.57242 17.3626 5.13881 15.4621 5.13881H15.2407V5.10191C15.2407 3.552 15.2407 1.63306 11.7718 1.63306H10.3695C6.90065 1.63306 6.90065 3.56122 6.90065 5.10191V5.14804H6.67924C4.76952 5.14804 3.46871 5.58164 2.68452 6.44885C1.77118 7.46368 1.79886 8.82908 1.89112 9.76087L1.90034 9.82545L1.9718 10.5758C1.98496 10.7139 2.05938 10.8387 2.17552 10.9147C2.39676 11.0595 2.76702 11.2982 2.98897 11.4215C3.11813 11.5045 3.25652 11.5783 3.3949 11.6521C4.97249 12.5193 6.70691 13.1006 8.46902 13.3866C8.55205 14.2538 8.9303 15.2686 10.9507 15.2686C12.9711 15.2686 13.3678 14.263 13.4324 13.3681C15.3145 13.0637 17.1319 12.4086 18.7741 11.4492C18.8294 11.4215 18.8663 11.3938 18.9125 11.3661C19.2785 11.1593 19.6582 10.9044 20.0043 10.6547C20.1086 10.5795 20.1752 10.4632 20.1894 10.3354L20.2041 10.2037L20.2502 9.77009C20.2594 9.71474 20.2594 9.66861 20.2686 9.60403C20.3424 8.67224 20.324 7.3991 19.4568 6.43963ZM12.0763 12.7592C12.0763 13.7371 12.0763 13.8847 10.9415 13.8847C9.80674 13.8847 9.80674 13.7095 9.80674 12.7684V11.606H12.0763V12.7592ZM8.21992 5.13881V5.10191C8.21992 3.53354 8.21992 2.95233 10.3695 2.95233H11.7718C13.9214 2.95233 13.9214 3.54277 13.9214 5.10191V5.14804H8.21992V5.13881Z" fill="#363CE2"/>
<path d="M19.2575 12.6707C19.5838 12.5154 19.9595 12.774 19.9268 13.1338L19.5957 16.7815C19.402 18.6266 18.6454 20.5086 14.5862 20.5086H7.55619C3.4969 20.5086 2.7404 18.6266 2.54666 16.7907L2.23233 13.3331C2.2 12.9774 2.56714 12.7192 2.89247 12.8663C3.94366 13.3419 5.88395 14.1857 7.08252 14.4996C7.23411 14.5393 7.35671 14.6478 7.42308 14.7898C7.98305 15.9874 9.19754 16.6246 10.9512 16.6246C12.6876 16.6246 13.9174 15.9628 14.4793 14.7623C14.5457 14.6202 14.6685 14.5118 14.8201 14.4719C16.0929 14.137 18.1581 13.1938 19.2575 12.6707Z" fill="#363CE2"/>
</svg>
