<svg width="252" height="138" viewBox="0 0 252 138" fill="none" xmlns="http://www.w3.org/2000/svg">
<rect x="0.5" y="0.5" width="251" height="137" rx="4.5" fill="white"/>
<rect x="0.5" y="0.5" width="251" height="137" rx="4.5" stroke="#F1F2F3"/>
<path d="M23.128 42.192C22.0187 42.192 21.0587 41.952 20.248 41.472C19.448 40.9813 18.8293 40.304 18.392 39.44C17.9547 38.5653 17.736 37.5573 17.736 36.416C17.736 35.264 17.9547 34.256 18.392 33.392C18.8293 32.5173 19.448 31.8347 20.248 31.344C21.0587 30.8533 22.0187 30.608 23.128 30.608C24.44 30.608 25.512 30.928 26.344 31.568C27.176 32.208 27.704 33.104 27.928 34.256H26.04C25.8907 33.6053 25.5707 33.088 25.08 32.704C24.5893 32.32 23.9333 32.128 23.112 32.128C21.992 32.128 21.1067 32.512 20.456 33.28C19.8053 34.0373 19.48 35.0827 19.48 36.416C19.48 37.7387 19.8053 38.7787 20.456 39.536C21.1067 40.2933 21.992 40.672 23.112 40.672C23.9333 40.672 24.5893 40.4907 25.08 40.128C25.5707 39.7653 25.8907 39.2693 26.04 38.64H27.928C27.704 39.7493 27.176 40.6187 26.344 41.248C25.512 41.8773 24.44 42.192 23.128 42.192ZM33.4403 42.192C32.6829 42.192 32.0003 42.0213 31.3923 41.68C30.7949 41.328 30.3203 40.8427 29.9683 40.224C29.6163 39.5947 29.4403 38.864 29.4403 38.032C29.4403 37.2 29.6163 36.4747 29.9683 35.856C30.3309 35.2267 30.8163 34.7413 31.4243 34.4C32.0323 34.048 32.7096 33.872 33.4563 33.872C34.2136 33.872 34.8909 34.048 35.4883 34.4C36.0963 34.7413 36.5763 35.2267 36.9283 35.856C37.2909 36.4747 37.4722 37.2 37.4722 38.032C37.4722 38.864 37.2909 39.5947 36.9283 40.224C36.5763 40.8427 36.0963 41.328 35.4883 41.68C34.8803 42.0213 34.1976 42.192 33.4403 42.192ZM33.4403 40.736C33.8456 40.736 34.2189 40.6347 34.5603 40.432C34.9123 40.2293 35.1949 39.9307 35.4083 39.536C35.6216 39.1307 35.7283 38.6293 35.7283 38.032C35.7283 37.4347 35.6216 36.9387 35.4083 36.544C35.2056 36.1387 34.9283 35.8347 34.5763 35.632C34.2349 35.4293 33.8616 35.328 33.4563 35.328C33.0509 35.328 32.6723 35.4293 32.3203 35.632C31.9789 35.8347 31.7016 36.1387 31.4883 36.544C31.2749 36.9387 31.1683 37.4347 31.1683 38.032C31.1683 38.6293 31.2749 39.1307 31.4883 39.536C31.7016 39.9307 31.9789 40.2293 32.3203 40.432C32.6616 40.6347 33.0349 40.736 33.4403 40.736ZM39.3064 42V34.064H40.8104L40.9544 35.184C41.2104 34.7787 41.5464 34.4587 41.9624 34.224C42.389 33.9893 42.8797 33.872 43.4344 33.872C44.693 33.872 45.5677 34.368 46.0584 35.36C46.3464 34.9013 46.7304 34.5387 47.2104 34.272C47.701 34.0053 48.229 33.872 48.7944 33.872C49.7864 33.872 50.565 34.1707 51.1304 34.768C51.6957 35.3653 51.9784 36.256 51.9784 37.44V42H50.2824V37.616C50.2824 36.08 49.6957 35.312 48.5224 35.312C47.925 35.312 47.4344 35.536 47.0504 35.984C46.677 36.432 46.4904 37.072 46.4904 37.904V42H44.7944V37.616C44.7944 36.08 44.2024 35.312 43.0184 35.312C42.4317 35.312 41.9464 35.536 41.5624 35.984C41.189 36.432 41.0024 37.072 41.0024 37.904V42H39.3064ZM53.9626 45.52V34.064H55.4826L55.6586 35.296C55.9146 34.9227 56.2666 34.592 56.7146 34.304C57.1626 34.016 57.7386 33.872 58.4426 33.872C59.2106 33.872 59.888 34.0533 60.4746 34.416C61.0613 34.7787 61.52 35.2747 61.8506 35.904C62.192 36.5333 62.3626 37.248 62.3626 38.048C62.3626 38.848 62.192 39.5627 61.8506 40.192C61.52 40.8107 61.0613 41.3013 60.4746 41.664C59.888 42.016 59.2053 42.192 58.4266 42.192C57.808 42.192 57.2586 42.0693 56.7786 41.824C56.3093 41.5787 55.936 41.232 55.6586 40.784V45.52H53.9626ZM58.1386 40.72C58.864 40.72 59.4613 40.4747 59.9306 39.984C60.4 39.4827 60.6346 38.832 60.6346 38.032C60.6346 37.5093 60.528 37.0453 60.3146 36.64C60.1013 36.2347 59.808 35.92 59.4346 35.696C59.0613 35.4613 58.6293 35.344 58.1386 35.344C57.4133 35.344 56.816 35.5947 56.3466 36.096C55.888 36.5973 55.6586 37.2427 55.6586 38.032C55.6586 38.832 55.888 39.4827 56.3466 39.984C56.816 40.4747 57.4133 40.72 58.1386 40.72ZM64.197 42V30.48H65.893V42H64.197ZM71.7528 42.192C70.9741 42.192 70.2808 42.0213 69.6728 41.68C69.0754 41.328 68.6061 40.8427 68.2648 40.224C67.9234 39.6053 67.7528 38.8853 67.7528 38.064C67.7528 37.232 67.9181 36.5013 68.2488 35.872C68.5901 35.2427 69.0594 34.752 69.6568 34.4C70.2648 34.048 70.9688 33.872 71.7688 33.872C72.5474 33.872 73.2248 34.048 73.8008 34.4C74.3768 34.7413 74.8248 35.2 75.1448 35.776C75.4648 36.352 75.6248 36.9867 75.6248 37.68C75.6248 37.7867 75.6194 37.904 75.6088 38.032C75.6088 38.1493 75.6034 38.2827 75.5928 38.432H69.4168C69.4701 39.2 69.7208 39.7867 70.1688 40.192C70.6274 40.5867 71.1554 40.784 71.7528 40.784C72.2328 40.784 72.6328 40.6773 72.9528 40.464C73.2834 40.24 73.5288 39.9413 73.6888 39.568H75.3848C75.1714 40.3147 74.7448 40.9387 74.1048 41.44C73.4754 41.9413 72.6914 42.192 71.7528 42.192ZM71.7528 35.264C71.1874 35.264 70.6861 35.4347 70.2488 35.776C69.8114 36.1067 69.5448 36.608 69.4488 37.28H73.9288C73.8968 36.6613 73.6781 36.1707 73.2728 35.808C72.8674 35.4453 72.3608 35.264 71.7528 35.264ZM80.5094 42C79.7307 42 79.112 41.8133 78.6534 41.44C78.1947 41.056 77.9654 40.3787 77.9654 39.408V35.488H76.6054V34.064H77.9654L78.1734 32.048H79.6614V34.064H81.9014V35.488H79.6614V39.408C79.6614 39.8453 79.752 40.1493 79.9334 40.32C80.1254 40.48 80.4507 40.56 80.9094 40.56H81.8214V42H80.5094ZM87.159 42.192C86.3803 42.192 85.687 42.0213 85.079 41.68C84.4817 41.328 84.0123 40.8427 83.671 40.224C83.3297 39.6053 83.159 38.8853 83.159 38.064C83.159 37.232 83.3243 36.5013 83.655 35.872C83.9963 35.2427 84.4657 34.752 85.063 34.4C85.671 34.048 86.375 33.872 87.175 33.872C87.9537 33.872 88.631 34.048 89.207 34.4C89.783 34.7413 90.231 35.2 90.551 35.776C90.871 36.352 91.031 36.9867 91.031 37.68C91.031 37.7867 91.0257 37.904 91.015 38.032C91.015 38.1493 91.0097 38.2827 90.999 38.432H84.823C84.8763 39.2 85.127 39.7867 85.575 40.192C86.0337 40.5867 86.5617 40.784 87.159 40.784C87.639 40.784 88.039 40.6773 88.359 40.464C88.6897 40.24 88.935 39.9413 89.095 39.568H90.791C90.5777 40.3147 90.151 40.9387 89.511 41.44C88.8817 41.9413 88.0977 42.192 87.159 42.192ZM87.159 35.264C86.5937 35.264 86.0923 35.4347 85.655 35.776C85.2177 36.1067 84.951 36.608 84.855 37.28H89.335C89.303 36.6613 89.0843 36.1707 88.679 35.808C88.2737 35.4453 87.767 35.264 87.159 35.264ZM96.4068 42.192C95.6388 42.192 94.9614 42.0107 94.3748 41.648C93.7881 41.2853 93.3294 40.7893 92.9988 40.16C92.6681 39.5307 92.5028 38.816 92.5028 38.016C92.5028 37.216 92.6681 36.5067 92.9988 35.888C93.3294 35.2587 93.7881 34.768 94.3748 34.416C94.9721 34.0533 95.6548 33.872 96.4227 33.872C97.0521 33.872 97.6014 33.9947 98.0708 34.24C98.5508 34.4853 98.9241 34.832 99.1908 35.28V30.48H100.887V42H99.3668L99.1908 40.768C98.9348 41.1413 98.5828 41.472 98.1348 41.76C97.6868 42.048 97.1108 42.192 96.4068 42.192ZM96.7108 40.72C97.4361 40.72 98.0281 40.4693 98.4868 39.968C98.9561 39.4667 99.1908 38.8213 99.1908 38.032C99.1908 37.232 98.9561 36.5867 98.4868 36.096C98.0281 35.5947 97.4361 35.344 96.7108 35.344C95.9854 35.344 95.3881 35.5947 94.9188 36.096C94.4494 36.5867 94.2148 37.232 94.2148 38.032C94.2148 38.5547 94.3214 39.0187 94.5348 39.424C94.7481 39.8293 95.0414 40.1493 95.4148 40.384C95.7988 40.608 96.2308 40.72 96.7108 40.72Z" fill="#2F2B2B" fill-opacity="0.69"/>
<rect x="201" y="19" width="34" height="35" rx="4" fill="#EDFFFC"/>
<path d="M218 28.6499C213.22 28.6499 209.33 32.5399 209.33 37.3199C209.33 42.0999 213.22 45.9999 218 45.9999C222.78 45.9999 226.67 42.1099 226.67 37.3299C226.67 32.5499 222.78 28.6499 218 28.6499ZM218.75 36.9999C218.75 37.4099 218.41 37.7499 218 37.7499C217.59 37.7499 217.25 37.4099 217.25 36.9999V31.9999C217.25 31.5899 217.59 31.2499 218 31.2499C218.41 31.2499 218.75 31.5899 218.75 31.9999V36.9999Z" fill="#22CAAD"/>
<path d="M220.89 27.45H215.11C214.71 27.45 214.39 27.13 214.39 26.73C214.39 26.33 214.71 26 215.11 26H220.89C221.29 26 221.61 26.32 221.61 26.72C221.61 27.12 221.29 27.45 220.89 27.45Z" fill="#22CAAD"/>
<path d="M19.55 104V99.35C21.6833 97.5833 23.75 95.8333 25.75 94.1C27.7833 92.3667 29.5833 90.65 31.15 88.95C32.75 87.25 34.0167 85.6 34.95 84C35.9167 82.3667 36.4 80.7833 36.4 79.25C36.4 77.8167 36 76.55 35.2 75.45C34.4333 74.35 33.15 73.8 31.35 73.8C29.5167 73.8 28.1333 74.4 27.2 75.6C26.2667 76.8 25.8 78.25 25.8 79.95H19.6C19.6667 77.3833 20.2333 75.25 21.3 73.55C22.3667 71.8167 23.7833 70.5333 25.55 69.7C27.3167 68.8333 29.3 68.4 31.5 68.4C35.0667 68.4 37.8333 69.3833 39.8 71.35C41.8 73.2833 42.8 75.8 42.8 78.9C42.8 80.8333 42.35 82.7167 41.45 84.55C40.5833 86.3833 39.4333 88.15 38 89.85C36.5667 91.55 35.0167 93.15 33.35 94.65C31.6833 96.1167 30.0667 97.4833 28.5 98.75H43.65V104H19.55ZM63.0703 104.6C59.837 104.6 57.0703 103.85 54.7703 102.35C52.4703 100.817 50.687 98.7 49.4203 96C48.187 93.2667 47.5703 90.1 47.5703 86.5C47.5703 82.9333 48.187 79.7833 49.4203 77.05C50.687 74.3167 52.4703 72.2 54.7703 70.7C57.0703 69.1667 59.837 68.4 63.0703 68.4C66.3036 68.4 69.0703 69.1667 71.3703 70.7C73.6703 72.2 75.437 74.3167 76.6703 77.05C77.937 79.7833 78.5703 82.9333 78.5703 86.5C78.5703 90.1 77.937 93.2667 76.6703 96C75.437 98.7 73.6703 100.817 71.3703 102.35C69.0703 103.85 66.3036 104.6 63.0703 104.6ZM63.0703 98.85C65.7036 98.85 67.8536 97.75 69.5203 95.55C71.187 93.35 72.0203 90.3333 72.0203 86.5C72.0203 82.6667 71.187 79.65 69.5203 77.45C67.8536 75.25 65.7036 74.15 63.0703 74.15C60.4036 74.15 58.237 75.25 56.5703 77.45C54.937 79.65 54.1203 82.6667 54.1203 86.5C54.1203 90.3333 54.937 93.35 56.5703 95.55C58.237 97.75 60.4036 98.85 63.0703 98.85Z" fill="#1E1E1E"/>
</svg>
