<svg width="252" height="162" viewBox="0 0 252 162" fill="none" xmlns="http://www.w3.org/2000/svg">
<rect x="0.5" y="0.5" width="251" height="161" rx="4.5" fill="white"/>
<rect x="0.5" y="0.5" width="251" height="161" rx="4.5" stroke="#F1F2F3"/>
<path d="M20.776 36V26.112H17.464V24.8H25.704V26.112H22.376V36H20.776ZM29.4868 36.192C28.7294 36.192 28.0468 36.0213 27.4388 35.68C26.8414 35.328 26.3668 34.8373 26.0148 34.208C25.6734 33.568 25.5028 32.8267 25.5028 31.984C25.5028 31.1413 25.6788 30.4053 26.0308 29.776C26.3828 29.136 26.8628 28.6453 27.4708 28.304C28.0788 27.952 28.7561 27.776 29.5028 27.776C30.2708 27.776 30.9534 27.952 31.5508 28.304C32.1588 28.6453 32.6334 29.1307 32.9748 29.76C33.3268 30.3893 33.5028 31.1307 33.5028 31.984C33.5028 32.8267 33.3268 33.568 32.9748 34.208C32.6228 34.8373 32.1428 35.328 31.5348 35.68C30.9374 36.0213 30.2548 36.192 29.4868 36.192ZM29.4868 34.816C29.9241 34.816 30.3188 34.7147 30.6708 34.512C31.0334 34.2987 31.3214 33.9787 31.5348 33.552C31.7588 33.1253 31.8708 32.6027 31.8708 31.984C31.8708 31.3547 31.7641 30.832 31.5508 30.416C31.3374 29.9893 31.0494 29.6747 30.6868 29.472C30.3348 29.2587 29.9454 29.152 29.5188 29.152C29.1028 29.152 28.7081 29.2587 28.3348 29.472C27.9721 29.6747 27.6788 29.9893 27.4548 30.416C27.2414 30.832 27.1348 31.3547 27.1348 31.984C27.1348 32.6027 27.2414 33.1253 27.4548 33.552C27.6788 33.9787 27.9668 34.2987 28.3188 34.512C28.6814 34.7147 29.0708 34.816 29.4868 34.816ZM38.3688 36C37.8674 36 37.4248 35.92 37.0408 35.76C36.6674 35.6 36.3794 35.3333 36.1768 34.96C35.9848 34.5867 35.8888 34.08 35.8888 33.44V29.312H34.4967V27.968H35.8888L36.0807 25.952H37.4888V27.968H39.7608V29.312H37.4888V33.456C37.4888 33.9147 37.5794 34.2293 37.7608 34.4C37.9528 34.56 38.2834 34.64 38.7528 34.64H39.6808V36H38.3688ZM44.1975 36.192C43.5362 36.192 42.9868 36.08 42.5495 35.856C42.1122 35.632 41.7868 35.3333 41.5735 34.96C41.3602 34.5867 41.2535 34.176 41.2535 33.728C41.2535 33.2053 41.3868 32.7573 41.6535 32.384C41.9308 32 42.3255 31.7067 42.8375 31.504C43.3602 31.3013 43.9788 31.2 44.6935 31.2H46.7895C46.7895 30.7307 46.7202 30.3413 46.5815 30.032C46.4428 29.7227 46.2348 29.4933 45.9575 29.344C45.6908 29.184 45.3495 29.104 44.9335 29.104C44.4535 29.104 44.0375 29.2213 43.6855 29.456C43.3442 29.6907 43.1362 30.032 43.0615 30.48H41.4455C41.5095 29.904 41.7015 29.4187 42.0215 29.024C42.3522 28.6187 42.7735 28.3093 43.2855 28.096C43.7975 27.8827 44.3468 27.776 44.9335 27.776C45.6802 27.776 46.3095 27.9093 46.8215 28.176C47.3442 28.4427 47.7335 28.8213 47.9895 29.312C48.2562 29.792 48.3895 30.3627 48.3895 31.024V36H46.9975L46.8695 34.64C46.7522 34.8533 46.6135 35.056 46.4535 35.248C46.2935 35.44 46.1015 35.6053 45.8775 35.744C45.6642 35.8827 45.4135 35.9893 45.1255 36.064C44.8482 36.1493 44.5388 36.192 44.1975 36.192ZM44.5015 34.896C44.8428 34.896 45.1522 34.8267 45.4295 34.688C45.7068 34.5493 45.9415 34.3627 46.1335 34.128C46.3362 33.8827 46.4855 33.6107 46.5815 33.312C46.6882 33.0133 46.7468 32.6987 46.7575 32.368V32.336H44.8535C44.3948 32.336 44.0215 32.3947 43.7335 32.512C43.4562 32.6187 43.2535 32.768 43.1255 32.96C42.9975 33.152 42.9335 33.376 42.9335 33.632C42.9335 33.888 42.9922 34.112 43.1095 34.304C43.2375 34.4853 43.4188 34.6293 43.6535 34.736C43.8882 34.8427 44.1708 34.896 44.5015 34.896ZM50.4318 36V24.48H52.0318V36H50.4318ZM58.3868 36V24.8H65.4427V26.112H59.9868V29.696H64.9628V30.976H59.9868V34.688H65.4427V36H58.3868ZM67.4474 36V27.968H68.8874L68.9994 29.088C69.2554 28.6827 69.5967 28.3627 70.0234 28.128C70.45 27.8933 70.93 27.776 71.4634 27.776C71.8687 27.776 72.2367 27.8293 72.5674 27.936C72.9087 28.0427 73.2074 28.208 73.4634 28.432C73.7194 28.656 73.9274 28.9387 74.0874 29.28C74.3647 28.8 74.7434 28.432 75.2234 28.176C75.714 27.9093 76.2367 27.776 76.7914 27.776C77.442 27.776 78.002 27.904 78.4714 28.16C78.9407 28.416 79.298 28.8053 79.5434 29.328C79.7887 29.8507 79.9114 30.5013 79.9114 31.28V36H78.3274V31.44C78.3274 30.6827 78.1727 30.112 77.8634 29.728C77.5647 29.3333 77.122 29.136 76.5354 29.136C76.1407 29.136 75.7887 29.2373 75.4794 29.44C75.17 29.6427 74.9247 29.9413 74.7434 30.336C74.5727 30.72 74.4874 31.1893 74.4874 31.744V36H72.8874V31.44C72.8874 30.6827 72.7327 30.112 72.4234 29.728C72.114 29.3333 71.6714 29.136 71.0954 29.136C70.7114 29.136 70.3647 29.2373 70.0554 29.44C69.746 29.6427 69.5007 29.9413 69.3194 30.336C69.138 30.72 69.0474 31.1893 69.0474 31.744V36H67.4474ZM81.963 39.52V27.968H83.403L83.563 29.216C83.7337 28.96 83.947 28.7253 84.203 28.512C84.459 28.288 84.763 28.112 85.115 27.984C85.4777 27.8453 85.899 27.776 86.379 27.776C87.147 27.776 87.819 27.9627 88.395 28.336C88.9817 28.6987 89.4403 29.2 89.771 29.84C90.1017 30.4693 90.267 31.1893 90.267 32C90.267 32.8107 90.1017 33.5307 89.771 34.16C89.4403 34.7893 88.9817 35.2853 88.395 35.648C87.8083 36.0107 87.131 36.192 86.363 36.192C85.7337 36.192 85.179 36.0693 84.699 35.824C84.219 35.568 83.8403 35.216 83.563 34.768V39.52H81.963ZM86.107 34.8C86.5977 34.8 87.035 34.6827 87.419 34.448C87.803 34.2133 88.1017 33.888 88.315 33.472C88.5283 33.0453 88.635 32.5493 88.635 31.984C88.635 31.4293 88.5283 30.9387 88.315 30.512C88.1017 30.0853 87.803 29.7547 87.419 29.52C87.035 29.2853 86.5977 29.168 86.107 29.168C85.6057 29.168 85.163 29.2853 84.779 29.52C84.395 29.7547 84.0963 30.0853 83.883 30.512C83.6803 30.928 83.579 31.4187 83.579 31.984C83.579 32.5493 83.6803 33.0453 83.883 33.472C84.0963 33.888 84.395 34.2133 84.779 34.448C85.163 34.6827 85.6057 34.8 86.107 34.8ZM92.1349 36V24.48H93.7349V36H92.1349ZM99.5961 36.192C98.8388 36.192 98.1561 36.0213 97.5481 35.68C96.9508 35.328 96.4761 34.8373 96.1241 34.208C95.7828 33.568 95.6121 32.8267 95.6121 31.984C95.6121 31.1413 95.7881 30.4053 96.1401 29.776C96.4921 29.136 96.9721 28.6453 97.5801 28.304C98.1881 27.952 98.8655 27.776 99.6121 27.776C100.38 27.776 101.063 27.952 101.66 28.304C102.268 28.6453 102.743 29.1307 103.084 29.76C103.436 30.3893 103.612 31.1307 103.612 31.984C103.612 32.8267 103.436 33.568 103.084 34.208C102.732 34.8373 102.252 35.328 101.644 35.68C101.047 36.0213 100.364 36.192 99.5961 36.192ZM99.5961 34.816C100.033 34.816 100.428 34.7147 100.78 34.512C101.143 34.2987 101.431 33.9787 101.644 33.552C101.868 33.1253 101.98 32.6027 101.98 31.984C101.98 31.3547 101.873 30.832 101.66 30.416C101.447 29.9893 101.159 29.6747 100.796 29.472C100.444 29.2587 100.055 29.152 99.6281 29.152C99.2121 29.152 98.8175 29.2587 98.4441 29.472C98.0815 29.6747 97.7881 29.9893 97.5641 30.416C97.3508 30.832 97.2441 31.3547 97.2441 31.984C97.2441 32.6027 97.3508 33.1253 97.5641 33.552C97.7881 33.9787 98.0761 34.2987 98.4281 34.512C98.7908 34.7147 99.1801 34.816 99.5961 34.816ZM105.735 39.52L107.703 35.104H107.223L104.039 27.968H105.783L108.311 33.792L110.855 27.968H112.535L107.415 39.52H105.735ZM116.877 36.192C116.098 36.192 115.41 36.0213 114.813 35.68C114.216 35.328 113.746 34.8373 113.405 34.208C113.074 33.5787 112.909 32.8427 112.909 32C112.909 31.1573 113.074 30.4213 113.405 29.792C113.746 29.1627 114.216 28.672 114.813 28.32C115.41 27.9573 116.104 27.776 116.893 27.776C117.682 27.776 118.36 27.952 118.925 28.304C119.49 28.6453 119.928 29.1093 120.237 29.696C120.546 30.272 120.701 30.912 120.701 31.616C120.701 31.7227 120.701 31.84 120.701 31.968C120.701 32.0853 120.69 32.2133 120.669 32.352H114.077V31.232H119.101C119.069 30.5707 118.845 30.0533 118.429 29.68C118.013 29.296 117.496 29.104 116.877 29.104C116.45 29.104 116.05 29.2 115.677 29.392C115.314 29.584 115.021 29.872 114.797 30.256C114.584 30.6293 114.477 31.104 114.477 31.68V32.128C114.477 32.7253 114.584 33.2267 114.797 33.632C115.021 34.0373 115.314 34.3467 115.677 34.56C116.04 34.7627 116.434 34.864 116.861 34.864C117.373 34.864 117.794 34.752 118.125 34.528C118.466 34.2933 118.717 33.984 118.877 33.6H120.477C120.328 34.1013 120.088 34.5493 119.757 34.944C119.437 35.328 119.032 35.632 118.541 35.856C118.061 36.08 117.506 36.192 116.877 36.192ZM126.143 36.192C125.364 36.192 124.676 36.0213 124.079 35.68C123.481 35.328 123.012 34.8373 122.671 34.208C122.34 33.5787 122.175 32.8427 122.175 32C122.175 31.1573 122.34 30.4213 122.671 29.792C123.012 29.1627 123.481 28.672 124.079 28.32C124.676 27.9573 125.369 27.776 126.159 27.776C126.948 27.776 127.625 27.952 128.191 28.304C128.756 28.6453 129.193 29.1093 129.503 29.696C129.812 30.272 129.967 30.912 129.967 31.616C129.967 31.7227 129.967 31.84 129.967 31.968C129.967 32.0853 129.956 32.2133 129.935 32.352H123.343V31.232H128.367C128.335 30.5707 128.111 30.0533 127.695 29.68C127.279 29.296 126.761 29.104 126.143 29.104C125.716 29.104 125.316 29.2 124.943 29.392C124.58 29.584 124.287 29.872 124.063 30.256C123.849 30.6293 123.743 31.104 123.743 31.68V32.128C123.743 32.7253 123.849 33.2267 124.063 33.632C124.287 34.0373 124.58 34.3467 124.943 34.56C125.305 34.7627 125.7 34.864 126.127 34.864C126.639 34.864 127.06 34.752 127.391 34.528C127.732 34.2933 127.983 33.984 128.143 33.6H129.743C129.593 34.1013 129.353 34.5493 129.023 34.944C128.703 35.328 128.297 35.632 127.807 35.856C127.327 36.08 126.772 36.192 126.143 36.192ZM134.864 36.192C134.192 36.192 133.595 36.08 133.072 35.856C132.56 35.632 132.155 35.3173 131.856 34.912C131.558 34.5067 131.376 34.032 131.312 33.488H132.928C132.992 33.744 133.099 33.9787 133.248 34.192C133.408 34.4053 133.622 34.576 133.888 34.704C134.166 34.832 134.491 34.896 134.864 34.896C135.216 34.896 135.504 34.848 135.728 34.752C135.952 34.6453 136.118 34.5067 136.224 34.336C136.342 34.1547 136.4 33.968 136.4 33.776C136.4 33.4773 136.326 33.2533 136.176 33.104C136.038 32.944 135.824 32.8213 135.536 32.736C135.259 32.64 134.918 32.5547 134.512 32.48C134.16 32.4053 133.808 32.3147 133.456 32.208C133.115 32.1013 132.806 31.9627 132.528 31.792C132.251 31.6213 132.032 31.408 131.872 31.152C131.712 30.8853 131.632 30.5653 131.632 30.192C131.632 29.7227 131.755 29.3067 132 28.944C132.246 28.5813 132.592 28.2987 133.04 28.096C133.499 27.8827 134.038 27.776 134.656 27.776C135.542 27.776 136.256 27.9893 136.8 28.416C137.355 28.832 137.675 29.4293 137.76 30.208H136.224C136.171 29.856 136.006 29.5787 135.728 29.376C135.462 29.1733 135.099 29.072 134.64 29.072C134.182 29.072 133.83 29.168 133.584 29.36C133.339 29.5413 133.216 29.776 133.216 30.064C133.216 30.256 133.286 30.4267 133.424 30.576C133.574 30.7253 133.782 30.8533 134.048 30.96C134.326 31.056 134.656 31.1467 135.04 31.232C135.595 31.3387 136.096 31.472 136.544 31.632C136.992 31.7813 137.35 32.0107 137.616 32.32C137.894 32.6293 138.032 33.072 138.032 33.648C138.032 34.1493 137.904 34.592 137.648 34.976C137.392 35.36 137.024 35.6587 136.544 35.872C136.075 36.0853 135.515 36.192 134.864 36.192Z" fill="#2F2B2B" fill-opacity="0.69"/>
<path d="M21.86 84V64.38L17.648 65.352V61.572L23.912 58.8H26.864V84H21.86ZM39.147 84.432C37.491 84.432 35.979 84.132 34.611 83.532C33.267 82.932 32.187 82.02 31.371 80.796C30.555 79.572 30.123 78.024 30.075 76.152H34.827C34.851 76.944 35.031 77.664 35.367 78.312C35.703 78.936 36.195 79.44 36.843 79.824C37.491 80.184 38.259 80.364 39.147 80.364C39.987 80.364 40.707 80.196 41.307 79.86C41.907 79.524 42.351 79.08 42.639 78.528C42.951 77.976 43.107 77.34 43.107 76.62C43.107 75.756 42.903 75.048 42.495 74.496C42.087 73.92 41.511 73.488 40.767 73.2C40.047 72.888 39.219 72.732 38.283 72.732H36.411V68.736H38.283C39.435 68.736 40.407 68.472 41.199 67.944C42.015 67.392 42.423 66.564 42.423 65.46C42.423 64.572 42.123 63.852 41.523 63.3C40.947 62.748 40.143 62.472 39.111 62.472C37.983 62.472 37.095 62.808 36.447 63.48C35.823 64.152 35.475 64.98 35.403 65.964H30.651C30.723 64.38 31.119 63.024 31.839 61.896C32.559 60.744 33.543 59.868 34.791 59.268C36.039 58.668 37.479 58.368 39.111 58.368C40.863 58.368 42.327 58.68 43.503 59.304C44.703 59.904 45.615 60.72 46.239 61.752C46.863 62.76 47.175 63.876 47.175 65.1C47.175 66.06 46.983 66.924 46.599 67.692C46.239 68.436 45.759 69.06 45.159 69.564C44.559 70.068 43.887 70.44 43.143 70.68C44.079 70.848 44.895 71.208 45.591 71.76C46.311 72.312 46.863 73.02 47.247 73.884C47.655 74.724 47.859 75.696 47.859 76.8C47.859 78.168 47.523 79.44 46.851 80.616C46.179 81.768 45.195 82.692 43.899 83.388C42.603 84.084 41.019 84.432 39.147 84.432ZM62.8078 84V79.428H50.4238V75.576L60.3958 58.8H67.6318V75.216H70.9078V79.428H67.6318V84H62.8078ZM55.6078 75.216H63.0958V62.364H62.9878L55.6078 75.216Z" fill="#1E1E1E"/>
<path d="M21.228 116.168C20.5093 116.168 19.8793 116.042 19.338 115.79C18.7967 115.538 18.372 115.179 18.064 114.712C17.7653 114.245 17.6113 113.69 17.602 113.046H19.17C19.1793 113.569 19.3613 114.012 19.716 114.376C20.0707 114.74 20.57 114.922 21.214 114.922C21.7833 114.922 22.2267 114.787 22.544 114.516C22.8707 114.236 23.034 113.881 23.034 113.452C23.034 113.107 22.9547 112.827 22.796 112.612C22.6467 112.397 22.4367 112.22 22.166 112.08C21.9047 111.94 21.6013 111.814 21.256 111.702C20.9107 111.59 20.5467 111.469 20.164 111.338C19.408 111.086 18.8387 110.759 18.456 110.358C18.0827 109.957 17.896 109.429 17.896 108.776C17.8867 108.225 18.0127 107.745 18.274 107.334C18.5447 106.923 18.918 106.606 19.394 106.382C19.8793 106.149 20.444 106.032 21.088 106.032C21.7227 106.032 22.278 106.149 22.754 106.382C23.2393 106.615 23.6173 106.942 23.888 107.362C24.1587 107.773 24.2987 108.253 24.308 108.804H22.74C22.74 108.552 22.6747 108.314 22.544 108.09C22.4133 107.857 22.222 107.665 21.97 107.516C21.718 107.367 21.41 107.292 21.046 107.292C20.5793 107.283 20.192 107.399 19.884 107.642C19.5853 107.885 19.436 108.221 19.436 108.65C19.436 109.033 19.548 109.327 19.772 109.532C19.996 109.737 20.304 109.91 20.696 110.05C21.088 110.181 21.536 110.335 22.04 110.512C22.5253 110.671 22.9593 110.862 23.342 111.086C23.7247 111.31 24.028 111.604 24.252 111.968C24.4853 112.332 24.602 112.794 24.602 113.354C24.602 113.849 24.476 114.311 24.224 114.74C23.972 115.16 23.594 115.505 23.09 115.776C22.586 116.037 21.9653 116.168 21.228 116.168ZM27.0085 107.74C26.7285 107.74 26.4951 107.656 26.3085 107.488C26.1311 107.311 26.0425 107.091 26.0425 106.83C26.0425 106.569 26.1311 106.354 26.3085 106.186C26.4951 106.009 26.7285 105.92 27.0085 105.92C27.2885 105.92 27.5171 106.009 27.6945 106.186C27.8811 106.354 27.9745 106.569 27.9745 106.83C27.9745 107.091 27.8811 107.311 27.6945 107.488C27.5171 107.656 27.2885 107.74 27.0085 107.74ZM26.2665 116V109.056H27.7505V116H26.2665ZM29.7095 116V109.056H31.0255L31.1375 110.274C31.3522 109.845 31.6648 109.509 32.0755 109.266C32.4955 109.014 32.9762 108.888 33.5175 108.888C34.3575 108.888 35.0155 109.149 35.4915 109.672C35.9768 110.195 36.2195 110.974 36.2195 112.01V116H34.7495V112.164C34.7495 110.82 34.1988 110.148 33.0975 110.148C32.5468 110.148 32.0895 110.344 31.7255 110.736C31.3708 111.128 31.1935 111.688 31.1935 112.416V116H29.7095ZM41.2573 116.168C40.576 116.168 39.9646 116.014 39.4233 115.706C38.8913 115.398 38.4713 114.973 38.1633 114.432C37.8646 113.881 37.7153 113.247 37.7153 112.528C37.7153 111.809 37.8646 111.179 38.1633 110.638C38.4713 110.087 38.8913 109.658 39.4233 109.35C39.9646 109.042 40.576 108.888 41.2573 108.888C42.116 108.888 42.8346 109.112 43.4133 109.56C44.0013 110.008 44.3793 110.615 44.5473 111.38H42.9933C42.9 110.997 42.6946 110.699 42.3773 110.484C42.06 110.269 41.6866 110.162 41.2573 110.162C40.8933 110.162 40.5573 110.255 40.2493 110.442C39.9413 110.619 39.694 110.885 39.5073 111.24C39.3206 111.585 39.2273 112.015 39.2273 112.528C39.2273 113.041 39.3206 113.475 39.5073 113.83C39.694 114.175 39.9413 114.441 40.2493 114.628C40.5573 114.815 40.8933 114.908 41.2573 114.908C41.6866 114.908 42.06 114.801 42.3773 114.586C42.6946 114.371 42.9 114.068 42.9933 113.676H44.5473C44.3886 114.423 44.0153 115.025 43.4273 115.482C42.8393 115.939 42.116 116.168 41.2573 116.168ZM49.4048 116.168C48.7234 116.168 48.1168 116.019 47.5848 115.72C47.0621 115.412 46.6514 114.987 46.3528 114.446C46.0541 113.905 45.9048 113.275 45.9048 112.556C45.9048 111.828 46.0494 111.189 46.3388 110.638C46.6374 110.087 47.0481 109.658 47.5708 109.35C48.1028 109.042 48.7188 108.888 49.4188 108.888C50.1001 108.888 50.6928 109.042 51.1968 109.35C51.7008 109.649 52.0928 110.05 52.3728 110.554C52.6528 111.058 52.7928 111.613 52.7928 112.22C52.7928 112.313 52.7881 112.416 52.7788 112.528C52.7788 112.631 52.7741 112.747 52.7648 112.878H47.3608C47.4074 113.55 47.6268 114.063 48.0188 114.418C48.4201 114.763 48.8821 114.936 49.4048 114.936C49.8248 114.936 50.1748 114.843 50.4548 114.656C50.7441 114.46 50.9588 114.199 51.0988 113.872H52.5828C52.3961 114.525 52.0228 115.071 51.4628 115.51C50.9121 115.949 50.2261 116.168 49.4048 116.168ZM49.4048 110.106C48.9101 110.106 48.4714 110.255 48.0888 110.554C47.7061 110.843 47.4728 111.282 47.3888 111.87H51.3088C51.2808 111.329 51.0894 110.899 50.7348 110.582C50.3801 110.265 49.9368 110.106 49.4048 110.106ZM57.8599 116V105.92H59.3439V116H57.8599ZM63.5752 116.168C62.9872 116.168 62.5018 116.07 62.1192 115.874C61.7365 115.678 61.4518 115.421 61.2652 115.104C61.0785 114.777 60.9852 114.423 60.9852 114.04C60.9852 113.368 61.2465 112.836 61.7692 112.444C62.2918 112.052 63.0385 111.856 64.0092 111.856H65.8292V111.73C65.8292 111.189 65.6798 110.783 65.3812 110.512C65.0918 110.241 64.7138 110.106 64.2472 110.106C63.8365 110.106 63.4772 110.209 63.1692 110.414C62.8705 110.61 62.6885 110.904 62.6232 111.296H61.1392C61.1858 110.792 61.3538 110.363 61.6432 110.008C61.9418 109.644 62.3152 109.369 62.7632 109.182C63.2205 108.986 63.7198 108.888 64.2612 108.888C65.2318 108.888 65.9832 109.145 66.5152 109.658C67.0472 110.162 67.3132 110.853 67.3132 111.73V116H66.0252L65.8992 114.81C65.7032 115.193 65.4185 115.515 65.0452 115.776C64.6718 116.037 64.1818 116.168 63.5752 116.168ZM63.8692 114.964C64.2705 114.964 64.6065 114.871 64.8772 114.684C65.1572 114.488 65.3718 114.231 65.5212 113.914C65.6798 113.597 65.7778 113.247 65.8152 112.864H64.1632C63.5752 112.864 63.1552 112.967 62.9032 113.172C62.6605 113.377 62.5392 113.634 62.5392 113.942C62.5392 114.259 62.6558 114.511 62.8892 114.698C63.1318 114.875 63.4585 114.964 63.8692 114.964ZM71.8155 116.168C70.9381 116.168 70.2148 115.953 69.6455 115.524C69.0761 115.095 68.7495 114.525 68.6655 113.816H70.1635C70.2381 114.133 70.4155 114.409 70.6955 114.642C70.9755 114.866 71.3441 114.978 71.8015 114.978C72.2495 114.978 72.5761 114.885 72.7815 114.698C72.9868 114.511 73.0895 114.297 73.0895 114.054C73.0895 113.699 72.9448 113.461 72.6555 113.34C72.3755 113.209 71.9835 113.093 71.4795 112.99C71.0875 112.906 70.6955 112.794 70.3035 112.654C69.9208 112.514 69.5988 112.318 69.3375 112.066C69.0855 111.805 68.9595 111.455 68.9595 111.016C68.9595 110.409 69.1928 109.905 69.6595 109.504C70.1261 109.093 70.7795 108.888 71.6195 108.888C72.3941 108.888 73.0195 109.075 73.4955 109.448C73.9808 109.821 74.2655 110.349 74.3495 111.03H72.9215C72.8748 110.731 72.7348 110.498 72.5015 110.33C72.2775 110.162 71.9741 110.078 71.5915 110.078C71.2181 110.078 70.9288 110.157 70.7235 110.316C70.5181 110.465 70.4155 110.661 70.4155 110.904C70.4155 111.147 70.5555 111.338 70.8355 111.478C71.1248 111.618 71.5028 111.744 71.9695 111.856C72.4361 111.959 72.8655 112.08 73.2575 112.22C73.6588 112.351 73.9808 112.547 74.2235 112.808C74.4661 113.069 74.5875 113.452 74.5875 113.956C74.5968 114.591 74.3495 115.118 73.8455 115.538C73.3508 115.958 72.6741 116.168 71.8155 116.168ZM78.8598 116C78.1784 116 77.6371 115.837 77.2358 115.51C76.8344 115.174 76.6338 114.581 76.6338 113.732V110.302H75.4438V109.056H76.6338L76.8158 107.292H78.1178V109.056H80.0778V110.302H78.1178V113.732C78.1178 114.115 78.1971 114.381 78.3558 114.53C78.5238 114.67 78.8084 114.74 79.2098 114.74H80.0078V116H78.8598ZM85.1353 116V109.056H86.4513L86.5773 110.036C86.8013 109.681 87.0953 109.401 87.4593 109.196C87.8326 108.991 88.2619 108.888 88.7473 108.888C89.8486 108.888 90.6139 109.322 91.0433 110.19C91.2953 109.789 91.6313 109.471 92.0513 109.238C92.4806 109.005 92.9426 108.888 93.4373 108.888C94.3053 108.888 94.9866 109.149 95.4813 109.672C95.9759 110.195 96.2233 110.974 96.2233 112.01V116H94.7393V112.164C94.7393 110.82 94.2259 110.148 93.1993 110.148C92.6766 110.148 92.2473 110.344 91.9113 110.736C91.5846 111.128 91.4213 111.688 91.4213 112.416V116H89.9373V112.164C89.9373 110.82 89.4193 110.148 88.3833 110.148C87.8699 110.148 87.4453 110.344 87.1093 110.736C86.7826 111.128 86.6193 111.688 86.6193 112.416V116H85.1353ZM101.207 116.168C100.545 116.168 99.9475 116.019 99.4155 115.72C98.8928 115.412 98.4775 114.987 98.1695 114.446C97.8615 113.895 97.7075 113.256 97.7075 112.528C97.7075 111.8 97.8615 111.165 98.1695 110.624C98.4868 110.073 98.9115 109.649 99.4435 109.35C99.9755 109.042 100.568 108.888 101.221 108.888C101.884 108.888 102.477 109.042 102.999 109.35C103.531 109.649 103.951 110.073 104.259 110.624C104.577 111.165 104.735 111.8 104.735 112.528C104.735 113.256 104.577 113.895 104.259 114.446C103.951 114.987 103.531 115.412 102.999 115.72C102.467 116.019 101.87 116.168 101.207 116.168ZM101.207 114.894C101.562 114.894 101.889 114.805 102.187 114.628C102.495 114.451 102.743 114.189 102.929 113.844C103.116 113.489 103.209 113.051 103.209 112.528C103.209 112.005 103.116 111.571 102.929 111.226C102.752 110.871 102.509 110.605 102.201 110.428C101.903 110.251 101.576 110.162 101.221 110.162C100.867 110.162 100.535 110.251 100.227 110.428C99.9288 110.605 99.6862 110.871 99.4995 111.226C99.3128 111.571 99.2195 112.005 99.2195 112.528C99.2195 113.051 99.3128 113.489 99.4995 113.844C99.6862 114.189 99.9288 114.451 100.227 114.628C100.526 114.805 100.853 114.894 101.207 114.894ZM106.34 116V109.056H107.656L107.768 110.274C107.983 109.845 108.296 109.509 108.706 109.266C109.126 109.014 109.607 108.888 110.148 108.888C110.988 108.888 111.646 109.149 112.122 109.672C112.608 110.195 112.85 110.974 112.85 112.01V116H111.38V112.164C111.38 110.82 110.83 110.148 109.728 110.148C109.178 110.148 108.72 110.344 108.356 110.736C108.002 111.128 107.824 111.688 107.824 112.416V116H106.34ZM117.51 116C116.829 116 116.287 115.837 115.886 115.51C115.485 115.174 115.284 114.581 115.284 113.732V110.302H114.094V109.056H115.284L115.466 107.292H116.768V109.056H118.728V110.302H116.768V113.732C116.768 114.115 116.847 114.381 117.006 114.53C117.174 114.67 117.459 114.74 117.86 114.74H118.658V116H117.51ZM120.258 116V105.92H121.742V110.176C121.976 109.775 122.298 109.462 122.708 109.238C123.128 109.005 123.59 108.888 124.094 108.888C124.925 108.888 125.578 109.149 126.054 109.672C126.53 110.195 126.768 110.974 126.768 112.01V116H125.298V112.164C125.298 110.82 124.762 110.148 123.688 110.148C123.128 110.148 122.662 110.344 122.288 110.736C121.924 111.128 121.742 111.688 121.742 112.416V116H120.258Z" fill="#3C3C3C"/>
<path d="M26.5 129H30.5V133" stroke="#0D805D" stroke-linecap="round" stroke-linejoin="round"/>
<path d="M30.5 129L24.85 134.65C24.7565 134.742 24.6309 134.793 24.5 134.793C24.3691 134.793 24.2435 134.742 24.15 134.65L21.85 132.35C21.7565 132.258 21.6309 132.207 21.5 132.207C21.3691 132.207 21.2435 132.258 21.15 132.35L17.5 136" stroke="#0D805D" stroke-linecap="round" stroke-linejoin="round"/>
<path d="M40.024 129.268L42.604 127.132H43.672V136H42.304V128.992L40.768 130.24L40.024 129.268ZM45.0098 128.38V127.132H50.6498V128.008L47.2898 136H45.8258L49.1018 128.38H45.0098ZM55.135 130.72C54.687 131.144 54.155 131.356 53.539 131.356C52.915 131.356 52.379 131.144 51.931 130.72C51.491 130.288 51.271 129.772 51.271 129.172C51.271 128.572 51.491 128.056 51.931 127.624C52.379 127.192 52.915 126.976 53.539 126.976C54.163 126.976 54.695 127.192 55.135 127.624C55.575 128.056 55.795 128.572 55.795 129.172C55.795 129.772 55.575 130.288 55.135 130.72ZM53.575 136H52.243L58.747 127.132H60.103L53.575 136ZM53.539 130.384C53.875 130.384 54.159 130.268 54.391 130.036C54.631 129.804 54.751 129.516 54.751 129.172C54.751 128.828 54.631 128.54 54.391 128.308C54.159 128.076 53.875 127.96 53.539 127.96C53.195 127.96 52.903 128.076 52.663 128.308C52.431 128.54 52.315 128.828 52.315 129.172C52.315 129.516 52.431 129.804 52.663 130.036C52.903 130.268 53.195 130.384 53.539 130.384ZM58.867 136.144C58.243 136.144 57.707 135.932 57.259 135.508C56.819 135.092 56.599 134.58 56.599 133.972C56.599 133.372 56.819 132.856 57.259 132.424C57.707 131.992 58.243 131.776 58.867 131.776C59.491 131.776 60.023 131.992 60.463 132.424C60.911 132.856 61.135 133.372 61.135 133.972C61.135 134.572 60.911 135.084 60.463 135.508C60.015 135.932 59.483 136.144 58.867 136.144ZM60.091 133.972C60.091 133.62 59.971 133.328 59.731 133.096C59.499 132.864 59.211 132.748 58.867 132.748C58.523 132.748 58.231 132.864 57.991 133.096C57.759 133.328 57.643 133.62 57.643 133.972C57.643 134.308 57.763 134.592 58.003 134.824C58.243 135.056 58.531 135.172 58.867 135.172C59.203 135.172 59.491 135.056 59.731 134.824C59.971 134.592 60.091 134.308 60.091 133.972Z" fill="#0D805D"/>
</svg>
