<svg width="252" height="138" viewBox="0 0 252 138" fill="none" xmlns="http://www.w3.org/2000/svg">
<rect x="0.5" y="0.5" width="251" height="137" rx="4.5" fill="white"/>
<rect x="0.5" y="0.5" width="251" height="137" rx="4.5" stroke="#F1F2F3"/>
<path d="M18.136 42V30.8H19.832V42H18.136ZM22.0408 42V34.064H23.5448L23.6728 35.456C23.9181 34.9653 24.2754 34.5813 24.7448 34.304C25.2248 34.016 25.7741 33.872 26.3928 33.872C27.3528 33.872 28.1048 34.1707 28.6488 34.768C29.2034 35.3653 29.4808 36.256 29.4808 37.44V42H27.8008V37.616C27.8008 36.08 27.1714 35.312 25.9128 35.312C25.2834 35.312 24.7608 35.536 24.3448 35.984C23.9394 36.432 23.7368 37.072 23.7368 37.904V42H22.0408ZM35.5735 42V30.8H39.4935C40.3682 30.8 41.0935 30.9493 41.6695 31.248C42.2455 31.536 42.6722 31.936 42.9495 32.448C43.2375 32.9493 43.3815 33.52 43.3815 34.16C43.3815 34.768 43.2428 35.328 42.9655 35.84C42.6988 36.3413 42.2775 36.7413 41.7015 37.04C41.1255 37.3387 40.3895 37.488 39.4935 37.488H37.2695V42H35.5735ZM37.2695 36.096H39.4135C40.2135 36.096 40.7842 35.9253 41.1255 35.584C41.4775 35.232 41.6535 34.7573 41.6535 34.16C41.6535 33.5413 41.4775 33.0613 41.1255 32.72C40.7842 32.368 40.2135 32.192 39.4135 32.192H37.2695V36.096ZM44.9939 42V34.064H46.5139L46.6579 35.568C46.9352 35.0453 47.3192 34.6347 47.8099 34.336C48.3112 34.0267 48.9139 33.872 49.6179 33.872V35.648H49.1539C48.6845 35.648 48.2632 35.728 47.8899 35.888C47.5272 36.0373 47.2339 36.2987 47.0099 36.672C46.7965 37.0347 46.6899 37.5413 46.6899 38.192V42H44.9939ZM54.5653 42.192C53.8079 42.192 53.1253 42.0213 52.5173 41.68C51.9199 41.328 51.4453 40.8427 51.0933 40.224C50.7413 39.5947 50.5653 38.864 50.5653 38.032C50.5653 37.2 50.7413 36.4747 51.0933 35.856C51.4559 35.2267 51.9413 34.7413 52.5493 34.4C53.1573 34.048 53.8346 33.872 54.5813 33.872C55.3386 33.872 56.0159 34.048 56.6133 34.4C57.2213 34.7413 57.7013 35.2267 58.0533 35.856C58.4159 36.4747 58.5972 37.2 58.5972 38.032C58.5972 38.864 58.4159 39.5947 58.0533 40.224C57.7013 40.8427 57.2213 41.328 56.6133 41.68C56.0053 42.0213 55.3226 42.192 54.5653 42.192ZM54.5653 40.736C54.9706 40.736 55.3439 40.6347 55.6853 40.432C56.0373 40.2293 56.3199 39.9307 56.5333 39.536C56.7466 39.1307 56.8533 38.6293 56.8533 38.032C56.8533 37.4347 56.7466 36.9387 56.5333 36.544C56.3306 36.1387 56.0533 35.8347 55.7013 35.632C55.3599 35.4293 54.9866 35.328 54.5813 35.328C54.1759 35.328 53.7973 35.4293 53.4453 35.632C53.1039 35.8347 52.8266 36.1387 52.6133 36.544C52.3999 36.9387 52.2933 37.4347 52.2933 38.032C52.2933 38.6293 52.3999 39.1307 52.6133 39.536C52.8266 39.9307 53.1039 40.2293 53.4453 40.432C53.7866 40.6347 54.1599 40.736 54.5653 40.736ZM63.2575 39.568C62.8415 39.568 62.4575 39.52 62.1055 39.424L61.4175 40.096C61.5348 40.1707 61.6788 40.2347 61.8495 40.288C62.0202 40.3413 62.2602 40.3893 62.5695 40.432C62.8788 40.4747 63.3002 40.5173 63.8335 40.56C64.8895 40.656 65.6522 40.912 66.1215 41.328C66.5908 41.7333 66.8255 42.2773 66.8255 42.96C66.8255 43.4293 66.6975 43.872 66.4415 44.288C66.1962 44.7147 65.8068 45.056 65.2735 45.312C64.7508 45.5787 64.0788 45.712 63.2575 45.712C62.1482 45.712 61.2468 45.4987 60.5535 45.072C59.8708 44.656 59.5295 44.0213 59.5295 43.168C59.5295 42.8373 59.6148 42.5067 59.7855 42.176C59.9668 41.856 60.2495 41.552 60.6335 41.264C60.4095 41.168 60.2122 41.0667 60.0415 40.96C59.8815 40.8427 59.7375 40.7253 59.6095 40.608V40.224L60.9855 38.816C60.3668 38.2827 60.0575 37.584 60.0575 36.72C60.0575 36.1973 60.1802 35.7227 60.4255 35.296C60.6815 34.8587 61.0495 34.512 61.5295 34.256C62.0095 34 62.5855 33.872 63.2575 33.872C63.7055 33.872 64.1215 33.936 64.5055 34.064H67.4655V35.184L66.0575 35.264C66.3135 35.7013 66.4415 36.1867 66.4415 36.72C66.4415 37.2533 66.3135 37.7333 66.0575 38.16C65.8122 38.5867 65.4495 38.928 64.9695 39.184C64.5002 39.44 63.9295 39.568 63.2575 39.568ZM63.2575 38.24C63.7482 38.24 64.1428 38.112 64.4415 37.856C64.7508 37.5893 64.9055 37.216 64.9055 36.736C64.9055 36.2453 64.7508 35.872 64.4415 35.616C64.1428 35.36 63.7482 35.232 63.2575 35.232C62.7562 35.232 62.3508 35.36 62.0415 35.616C61.7428 35.872 61.5935 36.2453 61.5935 36.736C61.5935 37.216 61.7428 37.5893 62.0415 37.856C62.3508 38.112 62.7562 38.24 63.2575 38.24ZM61.1295 43.008C61.1295 43.4667 61.3322 43.808 61.7375 44.032C62.1428 44.2667 62.6495 44.384 63.2575 44.384C63.8442 44.384 64.3188 44.256 64.6815 44C65.0442 43.7547 65.2255 43.424 65.2255 43.008C65.2255 42.6987 65.1028 42.432 64.8575 42.208C64.6122 41.9947 64.1482 41.8613 63.4655 41.808C62.9535 41.776 62.5002 41.728 62.1055 41.664C61.7322 41.8667 61.4762 42.0853 61.3375 42.32C61.1988 42.5547 61.1295 42.784 61.1295 43.008ZM68.9783 42V34.064H70.4983L70.6423 35.568C70.9196 35.0453 71.3036 34.6347 71.7943 34.336C72.2956 34.0267 72.8983 33.872 73.6023 33.872V35.648H73.1383C72.6689 35.648 72.2476 35.728 71.8743 35.888C71.5116 36.0373 71.2183 36.2987 70.9943 36.672C70.7809 37.0347 70.6743 37.5413 70.6743 38.192V42H68.9783ZM78.5496 42.192C77.771 42.192 77.0776 42.0213 76.4696 41.68C75.8723 41.328 75.403 40.8427 75.0616 40.224C74.7203 39.6053 74.5496 38.8853 74.5496 38.064C74.5496 37.232 74.715 36.5013 75.0456 35.872C75.387 35.2427 75.8563 34.752 76.4536 34.4C77.0616 34.048 77.7656 33.872 78.5656 33.872C79.3443 33.872 80.0216 34.048 80.5976 34.4C81.1736 34.7413 81.6216 35.2 81.9416 35.776C82.2616 36.352 82.4216 36.9867 82.4216 37.68C82.4216 37.7867 82.4163 37.904 82.4056 38.032C82.4056 38.1493 82.4003 38.2827 82.3896 38.432H76.2136C76.267 39.2 76.5176 39.7867 76.9656 40.192C77.4243 40.5867 77.9523 40.784 78.5496 40.784C79.0296 40.784 79.4296 40.6773 79.7496 40.464C80.0803 40.24 80.3256 39.9413 80.4856 39.568H82.1816C81.9683 40.3147 81.5416 40.9387 80.9016 41.44C80.2723 41.9413 79.4883 42.192 78.5496 42.192ZM78.5496 35.264C77.9843 35.264 77.483 35.4347 77.0456 35.776C76.6083 36.1067 76.3416 36.608 76.2456 37.28H80.7256C80.6936 36.6613 80.475 36.1707 80.0696 35.808C79.6643 35.4453 79.1576 35.264 78.5496 35.264ZM87.3494 42.192C86.3467 42.192 85.52 41.9467 84.8694 41.456C84.2187 40.9653 83.8454 40.3147 83.7494 39.504H85.4614C85.5467 39.8667 85.7494 40.1813 86.0694 40.448C86.3894 40.704 86.8107 40.832 87.3334 40.832C87.8454 40.832 88.2187 40.7253 88.4534 40.512C88.688 40.2987 88.8054 40.0533 88.8054 39.776C88.8054 39.3707 88.64 39.0987 88.3094 38.96C87.9894 38.8107 87.5414 38.6773 86.9654 38.56C86.5174 38.464 86.0694 38.336 85.6214 38.176C85.184 38.016 84.816 37.792 84.5174 37.504C84.2294 37.2053 84.0854 36.8053 84.0854 36.304C84.0854 35.6107 84.352 35.0347 84.8854 34.576C85.4187 34.1067 86.1654 33.872 87.1254 33.872C88.0107 33.872 88.7254 34.0853 89.2694 34.512C89.824 34.9387 90.1494 35.5413 90.2454 36.32H88.6134C88.56 35.9787 88.4 35.712 88.1334 35.52C87.8774 35.328 87.5307 35.232 87.0934 35.232C86.6667 35.232 86.336 35.3227 86.1014 35.504C85.8667 35.6747 85.7494 35.8987 85.7494 36.176C85.7494 36.4533 85.9094 36.672 86.2294 36.832C86.56 36.992 86.992 37.136 87.5254 37.264C88.0587 37.3813 88.5494 37.52 88.9974 37.68C89.456 37.8293 89.824 38.0533 90.1014 38.352C90.3787 38.6507 90.5174 39.088 90.5174 39.664C90.528 40.3893 90.2454 40.992 89.6694 41.472C89.104 41.952 88.3307 42.192 87.3494 42.192ZM95.5369 42.192C94.5342 42.192 93.7075 41.9467 93.0569 41.456C92.4062 40.9653 92.0329 40.3147 91.9369 39.504H93.6489C93.7342 39.8667 93.9369 40.1813 94.2569 40.448C94.5769 40.704 94.9982 40.832 95.5209 40.832C96.0329 40.832 96.4062 40.7253 96.6409 40.512C96.8755 40.2987 96.9929 40.0533 96.9929 39.776C96.9929 39.3707 96.8275 39.0987 96.4969 38.96C96.1769 38.8107 95.7289 38.6773 95.1529 38.56C94.7049 38.464 94.2569 38.336 93.8089 38.176C93.3715 38.016 93.0035 37.792 92.7049 37.504C92.4169 37.2053 92.2729 36.8053 92.2729 36.304C92.2729 35.6107 92.5395 35.0347 93.0729 34.576C93.6062 34.1067 94.3529 33.872 95.3129 33.872C96.1982 33.872 96.9129 34.0853 97.4569 34.512C98.0115 34.9387 98.3369 35.5413 98.4329 36.32H96.8009C96.7475 35.9787 96.5875 35.712 96.3209 35.52C96.0649 35.328 95.7182 35.232 95.2809 35.232C94.8542 35.232 94.5235 35.3227 94.2889 35.504C94.0542 35.6747 93.9369 35.8987 93.9369 36.176C93.9369 36.4533 94.0969 36.672 94.4169 36.832C94.7475 36.992 95.1795 37.136 95.7129 37.264C96.2462 37.3813 96.7369 37.52 97.1849 37.68C97.6435 37.8293 98.0115 38.0533 98.2889 38.352C98.5662 38.6507 98.7049 39.088 98.7049 39.664C98.7155 40.3893 98.4329 40.992 97.8569 41.472C97.2915 41.952 96.5182 42.192 95.5369 42.192Z" fill="#2F2B2B" fill-opacity="0.69"/>
<rect x="201" y="19" width="34" height="35" rx="4" fill="#FFF8F5"/>
<path d="M223.39 39.67L219.35 36H216.64L212.6 39.67C211.47 40.69 211.1 42.26 211.65 43.68C212.2 45.09 213.54 46 215.05 46H220.94C222.46 46 223.79 45.09 224.34 43.68C224.89 42.26 224.52 40.69 223.39 39.67ZM219.82 42.14H216.18C215.8 42.14 215.5 41.83 215.5 41.46C215.5 41.09 215.81 40.78 216.18 40.78H219.82C220.2 40.78 220.5 41.09 220.5 41.46C220.5 41.83 220.19 42.14 219.82 42.14Z" fill="#F86624"/>
<path d="M224.35 28.32C223.8 26.91 222.46 26 220.95 26H215.05C213.54 26 212.2 26.91 211.65 28.32C211.11 29.74 211.48 31.31 212.61 32.33L216.65 36H219.36L223.4 32.33C224.52 31.31 224.89 29.74 224.35 28.32ZM219.82 31.23H216.18C215.8 31.23 215.5 30.92 215.5 30.55C215.5 30.18 215.81 29.87 216.18 29.87H219.82C220.2 29.87 220.5 30.18 220.5 30.55C220.5 30.92 220.19 31.23 219.82 31.23Z" fill="#F86624"/>
<path d="M19.55 104V99.35C21.6833 97.5833 23.75 95.8333 25.75 94.1C27.7833 92.3667 29.5833 90.65 31.15 88.95C32.75 87.25 34.0167 85.6 34.95 84C35.9167 82.3667 36.4 80.7833 36.4 79.25C36.4 77.8167 36 76.55 35.2 75.45C34.4333 74.35 33.15 73.8 31.35 73.8C29.5167 73.8 28.1333 74.4 27.2 75.6C26.2667 76.8 25.8 78.25 25.8 79.95H19.6C19.6667 77.3833 20.2333 75.25 21.3 73.55C22.3667 71.8167 23.7833 70.5333 25.55 69.7C27.3167 68.8333 29.3 68.4 31.5 68.4C35.0667 68.4 37.8333 69.3833 39.8 71.35C41.8 73.2833 42.8 75.8 42.8 78.9C42.8 80.8333 42.35 82.7167 41.45 84.55C40.5833 86.3833 39.4333 88.15 38 89.85C36.5667 91.55 35.0167 93.15 33.35 94.65C31.6833 96.1167 30.0667 97.4833 28.5 98.75H43.65V104H19.55ZM60.4145 104.6C58.1145 104.6 56.0311 104.2 54.1645 103.4C52.2978 102.567 50.7978 101.3 49.6645 99.6C48.5311 97.9 47.9311 95.7667 47.8645 93.2H54.1645C54.1978 94.9 54.7478 96.3333 55.8145 97.5C56.9145 98.6333 58.4478 99.2 60.4145 99.2C62.2811 99.2 63.7145 98.6833 64.7145 97.65C65.7145 96.6167 66.2145 95.3167 66.2145 93.75C66.2145 91.9167 65.5478 90.5333 64.2145 89.6C62.9145 88.6333 61.2311 88.15 59.1645 88.15H56.5645V82.9H59.2145C60.9145 82.9 62.3311 82.5 63.4645 81.7C64.5978 80.9 65.1645 79.7167 65.1645 78.15C65.1645 76.85 64.7311 75.8167 63.8645 75.05C63.0311 74.25 61.8645 73.85 60.3645 73.85C58.7311 73.85 57.4478 74.3333 56.5145 75.3C55.6145 76.2667 55.1145 77.45 55.0145 78.85H48.7645C48.8978 75.6167 50.0145 73.0667 52.1145 71.2C54.2478 69.3333 56.9978 68.4 60.3645 68.4C62.7645 68.4 64.7811 68.8333 66.4145 69.7C68.0811 70.5333 69.3311 71.65 70.1645 73.05C71.0311 74.45 71.4645 76 71.4645 77.7C71.4645 79.6667 70.9145 81.3333 69.8145 82.7C68.7478 84.0333 67.4145 84.9333 65.8145 85.4C67.7811 85.8 69.3811 86.7667 70.6145 88.3C71.8478 89.8 72.4645 91.7 72.4645 94C72.4645 95.9333 71.9978 97.7 71.0645 99.3C70.1311 100.9 68.7645 102.183 66.9645 103.15C65.1978 104.117 63.0145 104.6 60.4145 104.6Z" fill="#1E1E1E"/>
</svg>
