<svg width="252" height="162" viewBox="0 0 252 162" fill="none" xmlns="http://www.w3.org/2000/svg">
<rect x="0.5" y="0.5" width="251" height="161" rx="4.5" fill="white"/>
<rect x="0.5" y="0.5" width="251" height="161" rx="4.5" stroke="#F1F2F3"/>
<path d="M20.776 36V26.112H17.464V24.8H25.704V26.112H22.376V36H20.776ZM29.4868 36.192C28.7294 36.192 28.0468 36.0213 27.4388 35.68C26.8414 35.328 26.3668 34.8373 26.0148 34.208C25.6734 33.568 25.5028 32.8267 25.5028 31.984C25.5028 31.1413 25.6788 30.4053 26.0308 29.776C26.3828 29.136 26.8628 28.6453 27.4708 28.304C28.0788 27.952 28.7561 27.776 29.5028 27.776C30.2708 27.776 30.9534 27.952 31.5508 28.304C32.1588 28.6453 32.6334 29.1307 32.9748 29.76C33.3268 30.3893 33.5028 31.1307 33.5028 31.984C33.5028 32.8267 33.3268 33.568 32.9748 34.208C32.6228 34.8373 32.1428 35.328 31.5348 35.68C30.9374 36.0213 30.2548 36.192 29.4868 36.192ZM29.4868 34.816C29.9241 34.816 30.3188 34.7147 30.6708 34.512C31.0334 34.2987 31.3214 33.9787 31.5348 33.552C31.7588 33.1253 31.8708 32.6027 31.8708 31.984C31.8708 31.3547 31.7641 30.832 31.5508 30.416C31.3374 29.9893 31.0494 29.6747 30.6868 29.472C30.3348 29.2587 29.9454 29.152 29.5188 29.152C29.1028 29.152 28.7081 29.2587 28.3348 29.472C27.9721 29.6747 27.6788 29.9893 27.4548 30.416C27.2414 30.832 27.1348 31.3547 27.1348 31.984C27.1348 32.6027 27.2414 33.1253 27.4548 33.552C27.6788 33.9787 27.9668 34.2987 28.3188 34.512C28.6814 34.7147 29.0708 34.816 29.4868 34.816ZM38.3688 36C37.8674 36 37.4248 35.92 37.0408 35.76C36.6674 35.6 36.3794 35.3333 36.1768 34.96C35.9848 34.5867 35.8888 34.08 35.8888 33.44V29.312H34.4967V27.968H35.8888L36.0807 25.952H37.4888V27.968H39.7608V29.312H37.4888V33.456C37.4888 33.9147 37.5794 34.2293 37.7608 34.4C37.9528 34.56 38.2834 34.64 38.7528 34.64H39.6808V36H38.3688ZM44.1975 36.192C43.5362 36.192 42.9868 36.08 42.5495 35.856C42.1122 35.632 41.7868 35.3333 41.5735 34.96C41.3602 34.5867 41.2535 34.176 41.2535 33.728C41.2535 33.2053 41.3868 32.7573 41.6535 32.384C41.9308 32 42.3255 31.7067 42.8375 31.504C43.3602 31.3013 43.9788 31.2 44.6935 31.2H46.7895C46.7895 30.7307 46.7202 30.3413 46.5815 30.032C46.4428 29.7227 46.2348 29.4933 45.9575 29.344C45.6908 29.184 45.3495 29.104 44.9335 29.104C44.4535 29.104 44.0375 29.2213 43.6855 29.456C43.3442 29.6907 43.1362 30.032 43.0615 30.48H41.4455C41.5095 29.904 41.7015 29.4187 42.0215 29.024C42.3522 28.6187 42.7735 28.3093 43.2855 28.096C43.7975 27.8827 44.3468 27.776 44.9335 27.776C45.6802 27.776 46.3095 27.9093 46.8215 28.176C47.3442 28.4427 47.7335 28.8213 47.9895 29.312C48.2562 29.792 48.3895 30.3627 48.3895 31.024V36H46.9975L46.8695 34.64C46.7522 34.8533 46.6135 35.056 46.4535 35.248C46.2935 35.44 46.1015 35.6053 45.8775 35.744C45.6642 35.8827 45.4135 35.9893 45.1255 36.064C44.8482 36.1493 44.5388 36.192 44.1975 36.192ZM44.5015 34.896C44.8428 34.896 45.1522 34.8267 45.4295 34.688C45.7068 34.5493 45.9415 34.3627 46.1335 34.128C46.3362 33.8827 46.4855 33.6107 46.5815 33.312C46.6882 33.0133 46.7468 32.6987 46.7575 32.368V32.336H44.8535C44.3948 32.336 44.0215 32.3947 43.7335 32.512C43.4562 32.6187 43.2535 32.768 43.1255 32.96C42.9975 33.152 42.9335 33.376 42.9335 33.632C42.9335 33.888 42.9922 34.112 43.1095 34.304C43.2375 34.4853 43.4188 34.6293 43.6535 34.736C43.8882 34.8427 44.1708 34.896 44.5015 34.896ZM50.4318 36V24.48H52.0318V36H50.4318ZM58.3868 36V24.8H61.8588C63.1601 24.8 64.2374 25.0293 65.0908 25.488C65.9441 25.9467 66.5734 26.5973 66.9788 27.44C67.3948 28.272 67.6028 29.264 67.6028 30.416C67.6028 31.568 67.3948 32.56 66.9788 33.392C66.5734 34.224 65.9441 34.8693 65.0908 35.328C64.2374 35.776 63.1601 36 61.8588 36H58.3868ZM59.9868 34.656H61.7948C62.8294 34.656 63.6508 34.4853 64.2588 34.144C64.8668 33.8027 65.2988 33.3173 65.5548 32.688C65.8214 32.048 65.9548 31.2907 65.9548 30.416C65.9548 29.5307 65.8214 28.768 65.5548 28.128C65.2988 27.488 64.8668 26.9973 64.2588 26.656C63.6508 26.3147 62.8294 26.144 61.7948 26.144H59.9868V34.656ZM73.0958 36.192C72.3171 36.192 71.6291 36.0213 71.0318 35.68C70.4344 35.328 69.9651 34.8373 69.6238 34.208C69.2931 33.5787 69.1278 32.8427 69.1278 32C69.1278 31.1573 69.2931 30.4213 69.6238 29.792C69.9651 29.1627 70.4344 28.672 71.0318 28.32C71.6291 27.9573 72.3224 27.776 73.1118 27.776C73.9011 27.776 74.5784 27.952 75.1438 28.304C75.7091 28.6453 76.1464 29.1093 76.4558 29.696C76.7651 30.272 76.9198 30.912 76.9198 31.616C76.9198 31.7227 76.9198 31.84 76.9198 31.968C76.9198 32.0853 76.9091 32.2133 76.8878 32.352H70.2958V31.232H75.3198C75.2878 30.5707 75.0638 30.0533 74.6478 29.68C74.2318 29.296 73.7144 29.104 73.0958 29.104C72.6691 29.104 72.2691 29.2 71.8958 29.392C71.5331 29.584 71.2398 29.872 71.0158 30.256C70.8024 30.6293 70.6957 31.104 70.6957 31.68V32.128C70.6957 32.7253 70.8024 33.2267 71.0158 33.632C71.2398 34.0373 71.5331 34.3467 71.8958 34.56C72.2584 34.7627 72.6531 34.864 73.0798 34.864C73.5918 34.864 74.0131 34.752 74.3438 34.528C74.6851 34.2933 74.9358 33.984 75.0958 33.6H76.6958C76.5464 34.1013 76.3064 34.5493 75.9758 34.944C75.6558 35.328 75.2504 35.632 74.7598 35.856C74.2798 36.08 73.7251 36.192 73.0958 36.192ZM82.2814 36.192C81.5134 36.192 80.836 36.0107 80.2494 35.648C79.6627 35.2747 79.204 34.7733 78.8734 34.144C78.5534 33.504 78.3934 32.7787 78.3934 31.968C78.3934 31.1573 78.5534 30.4373 78.8734 29.808C79.204 29.1787 79.6627 28.6827 80.2494 28.32C80.8467 27.9573 81.5347 27.776 82.3134 27.776C82.9427 27.776 83.4974 27.904 83.9774 28.16C84.4574 28.4053 84.8307 28.752 85.0974 29.2V24.48H86.6974V36H85.2574L85.0974 34.752C84.9267 34.9973 84.7134 35.232 84.4574 35.456C84.2014 35.6693 83.892 35.8453 83.5294 35.984C83.1774 36.1227 82.7614 36.192 82.2814 36.192ZM82.5534 34.8C83.044 34.8 83.4814 34.6827 83.8654 34.448C84.2494 34.2133 84.548 33.888 84.7614 33.472C84.9747 33.0453 85.0814 32.5493 85.0814 31.984C85.0814 31.4187 84.9747 30.928 84.7614 30.512C84.548 30.0853 84.2494 29.7547 83.8654 29.52C83.4814 29.2853 83.0387 29.168 82.5374 29.168C82.0574 29.168 81.6254 29.2853 81.2414 29.52C80.8574 29.7547 80.5587 30.0853 80.3454 30.512C80.132 30.928 80.0254 31.4187 80.0254 31.984C80.0254 32.5387 80.132 33.0293 80.3454 33.456C80.5587 33.8827 80.8574 34.2133 81.2414 34.448C81.6254 34.6827 82.0627 34.8 82.5534 34.8ZM91.8133 36.192C91.1839 36.192 90.6399 36.064 90.1813 35.808C89.7226 35.552 89.3653 35.168 89.1093 34.656C88.8639 34.1333 88.7413 33.4827 88.7413 32.704V27.968H90.3413V32.544C90.3413 33.3013 90.5013 33.872 90.8213 34.256C91.1519 34.64 91.6266 34.832 92.2453 34.832C92.6719 34.832 93.0506 34.7307 93.3813 34.528C93.7226 34.3253 93.9893 34.032 94.1813 33.648C94.3733 33.264 94.4693 32.7947 94.4693 32.24V27.968H96.0693V36H94.6453L94.5333 34.624C94.2879 35.104 93.9253 35.488 93.4453 35.776C92.9759 36.0533 92.4319 36.192 91.8133 36.192ZM101.972 36.192C101.194 36.192 100.5 36.016 99.8923 35.664C99.2843 35.312 98.8043 34.8213 98.4523 34.192C98.1109 33.552 97.9403 32.8213 97.9403 32C97.9403 31.1573 98.1109 30.4213 98.4523 29.792C98.8043 29.1627 99.2843 28.672 99.8923 28.32C100.5 27.9573 101.194 27.776 101.972 27.776C102.954 27.776 103.775 28.032 104.436 28.544C105.098 29.0453 105.514 29.7333 105.684 30.608H104.02C103.924 30.1493 103.684 29.792 103.3 29.536C102.916 29.28 102.468 29.152 101.956 29.152C101.53 29.152 101.135 29.2587 100.772 29.472C100.41 29.6853 100.116 30.0053 99.8923 30.432C99.6789 30.848 99.5723 31.3653 99.5723 31.984C99.5723 32.4427 99.6363 32.8533 99.7643 33.216C99.8923 33.568 100.063 33.8667 100.276 34.112C100.5 34.3467 100.756 34.528 101.044 34.656C101.332 34.7733 101.636 34.832 101.956 34.832C102.308 34.832 102.623 34.7787 102.9 34.672C103.188 34.5547 103.428 34.384 103.62 34.16C103.823 33.936 103.956 33.6693 104.02 33.36H105.684C105.514 34.2133 105.098 34.9013 104.436 35.424C103.775 35.936 102.954 36.192 101.972 36.192ZM110.697 36C110.196 36 109.753 35.92 109.369 35.76C108.996 35.6 108.708 35.3333 108.505 34.96C108.313 34.5867 108.217 34.08 108.217 33.44V29.312H106.825V27.968H108.217L108.409 25.952H109.817V27.968H112.089V29.312H109.817V33.456C109.817 33.9147 109.908 34.2293 110.089 34.4C110.281 34.56 110.612 34.64 111.081 34.64H112.009V36H110.697ZM113.966 36V27.968H115.566V36H113.966ZM114.766 26.432C114.467 26.432 114.216 26.336 114.014 26.144C113.822 25.952 113.726 25.7067 113.726 25.408C113.726 25.12 113.822 24.8853 114.014 24.704C114.216 24.512 114.467 24.416 114.766 24.416C115.075 24.416 115.331 24.512 115.534 24.704C115.736 24.8853 115.838 25.12 115.838 25.408C115.838 25.7067 115.736 25.952 115.534 26.144C115.331 26.336 115.075 26.432 114.766 26.432ZM121.534 36.192C120.776 36.192 120.094 36.0213 119.486 35.68C118.888 35.328 118.414 34.8373 118.062 34.208C117.72 33.568 117.55 32.8267 117.55 31.984C117.55 31.1413 117.726 30.4053 118.078 29.776C118.43 29.136 118.91 28.6453 119.518 28.304C120.126 27.952 120.803 27.776 121.55 27.776C122.318 27.776 123 27.952 123.598 28.304C124.206 28.6453 124.68 29.1307 125.022 29.76C125.374 30.3893 125.55 31.1307 125.55 31.984C125.55 32.8267 125.374 33.568 125.022 34.208C124.67 34.8373 124.19 35.328 123.582 35.68C122.984 36.0213 122.302 36.192 121.534 36.192ZM121.534 34.816C121.971 34.816 122.366 34.7147 122.718 34.512C123.08 34.2987 123.368 33.9787 123.582 33.552C123.806 33.1253 123.918 32.6027 123.918 31.984C123.918 31.3547 123.811 30.832 123.598 30.416C123.384 29.9893 123.096 29.6747 122.734 29.472C122.382 29.2587 121.992 29.152 121.566 29.152C121.15 29.152 120.755 29.2587 120.382 29.472C120.019 29.6747 119.726 29.9893 119.502 30.416C119.288 30.832 119.182 31.3547 119.182 31.984C119.182 32.6027 119.288 33.1253 119.502 33.552C119.726 33.9787 120.014 34.2987 120.366 34.512C120.728 34.7147 121.118 34.816 121.534 34.816ZM127.416 36V27.968H128.856L128.952 29.344C129.208 28.864 129.571 28.4853 130.04 28.208C130.509 27.92 131.053 27.776 131.672 27.776C132.301 27.776 132.845 27.904 133.304 28.16C133.763 28.416 134.12 28.8053 134.376 29.328C134.632 29.84 134.76 30.4853 134.76 31.264V36H133.16V31.424C133.16 30.6773 132.995 30.112 132.664 29.728C132.333 29.3333 131.859 29.136 131.24 29.136C130.813 29.136 130.429 29.2373 130.088 29.44C129.757 29.6427 129.496 29.936 129.304 30.32C129.112 30.704 129.016 31.1787 129.016 31.744V36H127.416ZM139.927 36.192C139.255 36.192 138.657 36.08 138.135 35.856C137.623 35.632 137.217 35.3173 136.919 34.912C136.62 34.5067 136.439 34.032 136.375 33.488H137.991C138.055 33.744 138.161 33.9787 138.311 34.192C138.471 34.4053 138.684 34.576 138.951 34.704C139.228 34.832 139.553 34.896 139.927 34.896C140.279 34.896 140.567 34.848 140.791 34.752C141.015 34.6453 141.18 34.5067 141.287 34.336C141.404 34.1547 141.463 33.968 141.463 33.776C141.463 33.4773 141.388 33.2533 141.239 33.104C141.1 32.944 140.887 32.8213 140.599 32.736C140.321 32.64 139.98 32.5547 139.575 32.48C139.223 32.4053 138.871 32.3147 138.519 32.208C138.177 32.1013 137.868 31.9627 137.591 31.792C137.313 31.6213 137.095 31.408 136.935 31.152C136.775 30.8853 136.695 30.5653 136.695 30.192C136.695 29.7227 136.817 29.3067 137.063 28.944C137.308 28.5813 137.655 28.2987 138.103 28.096C138.561 27.8827 139.1 27.776 139.719 27.776C140.604 27.776 141.319 27.9893 141.863 28.416C142.417 28.832 142.737 29.4293 142.823 30.208H141.287C141.233 29.856 141.068 29.5787 140.791 29.376C140.524 29.1733 140.161 29.072 139.703 29.072C139.244 29.072 138.892 29.168 138.647 29.36C138.401 29.5413 138.279 29.776 138.279 30.064C138.279 30.256 138.348 30.4267 138.487 30.576C138.636 30.7253 138.844 30.8533 139.111 30.96C139.388 31.056 139.719 31.1467 140.103 31.232C140.657 31.3387 141.159 31.472 141.607 31.632C142.055 31.7813 142.412 32.0107 142.679 32.32C142.956 32.6293 143.095 33.072 143.095 33.648C143.095 34.1493 142.967 34.592 142.711 34.976C142.455 35.36 142.087 35.6587 141.607 35.872C141.137 36.0853 140.577 36.192 139.927 36.192Z" fill="#2F2B2B" fill-opacity="0.69"/>
<path d="M26.108 87.132V55.488H28.484V87.132H26.108ZM27.62 84.432C25.796 84.432 24.164 84.12 22.724 83.496C21.308 82.872 20.18 81.96 19.34 80.76C18.524 79.56 18.092 78.108 18.044 76.404H23.228C23.252 77.148 23.432 77.82 23.768 78.42C24.128 79.02 24.632 79.5 25.28 79.86C25.928 80.196 26.696 80.364 27.584 80.364C28.352 80.364 29.012 80.256 29.564 80.04C30.14 79.8 30.584 79.452 30.896 78.996C31.232 78.54 31.4 77.976 31.4 77.304C31.4 76.584 31.22 75.984 30.86 75.504C30.524 75.024 30.044 74.616 29.42 74.28C28.796 73.944 28.088 73.644 27.296 73.38C26.504 73.092 25.688 72.804 24.848 72.516C22.832 71.82 21.284 70.932 20.204 69.852C19.148 68.748 18.62 67.296 18.62 65.496C18.62 64.032 18.98 62.772 19.7 61.716C20.444 60.636 21.464 59.808 22.76 59.232C24.056 58.656 25.532 58.368 27.188 58.368C28.892 58.368 30.38 58.668 31.652 59.268C32.948 59.844 33.968 60.684 34.712 61.788C35.48 62.892 35.876 64.188 35.9 65.676H30.68C30.68 65.052 30.524 64.5 30.212 64.02C29.924 63.516 29.504 63.12 28.952 62.832C28.424 62.544 27.8 62.4 27.08 62.4C26.456 62.4 25.88 62.496 25.352 62.688C24.848 62.88 24.44 63.18 24.128 63.588C23.84 63.996 23.696 64.524 23.696 65.172C23.696 65.772 23.84 66.276 24.128 66.684C24.416 67.092 24.812 67.452 25.316 67.764C25.844 68.052 26.468 68.34 27.188 68.628C27.908 68.892 28.7 69.168 29.564 69.456C30.836 69.888 32 70.404 33.056 71.004C34.112 71.58 34.952 72.336 35.576 73.272C36.2 74.208 36.512 75.432 36.512 76.944C36.512 78.264 36.164 79.5 35.468 80.652C34.796 81.78 33.8 82.692 32.48 83.388C31.184 84.084 29.564 84.432 27.62 84.432ZM48.0416 84.432C46.3856 84.432 44.8736 84.132 43.5056 83.532C42.1616 82.932 41.0816 82.02 40.2656 80.796C39.4496 79.572 39.0176 78.024 38.9696 76.152H43.7216C43.7456 76.944 43.9256 77.664 44.2616 78.312C44.5976 78.936 45.0896 79.44 45.7376 79.824C46.3856 80.184 47.1536 80.364 48.0416 80.364C48.8816 80.364 49.6016 80.196 50.2016 79.86C50.8016 79.524 51.2456 79.08 51.5336 78.528C51.8456 77.976 52.0016 77.34 52.0016 76.62C52.0016 75.756 51.7976 75.048 51.3896 74.496C50.9816 73.92 50.4056 73.488 49.6616 73.2C48.9416 72.888 48.1136 72.732 47.1776 72.732H45.3056V68.736H47.1776C48.3296 68.736 49.3016 68.472 50.0936 67.944C50.9096 67.392 51.3176 66.564 51.3176 65.46C51.3176 64.572 51.0176 63.852 50.4176 63.3C49.8416 62.748 49.0376 62.472 48.0056 62.472C46.8776 62.472 45.9896 62.808 45.3416 63.48C44.7176 64.152 44.3696 64.98 44.2976 65.964H39.5456C39.6176 64.38 40.0136 63.024 40.7336 61.896C41.4536 60.744 42.4376 59.868 43.6856 59.268C44.9336 58.668 46.3736 58.368 48.0056 58.368C49.7576 58.368 51.2216 58.68 52.3976 59.304C53.5976 59.904 54.5096 60.72 55.1336 61.752C55.7576 62.76 56.0696 63.876 56.0696 65.1C56.0696 66.06 55.8776 66.924 55.4936 67.692C55.1336 68.436 54.6536 69.06 54.0536 69.564C53.4536 70.068 52.7816 70.44 52.0376 70.68C52.9736 70.848 53.7896 71.208 54.4856 71.76C55.2056 72.312 55.7576 73.02 56.1416 73.884C56.5496 74.724 56.7536 75.696 56.7536 76.8C56.7536 78.168 56.4176 79.44 55.7456 80.616C55.0736 81.768 54.0896 82.692 52.7936 83.388C51.4976 84.084 49.9136 84.432 48.0416 84.432ZM70.8383 84.432C68.4863 84.432 66.4703 83.88 64.7903 82.776C63.1103 81.672 61.8143 80.148 60.9023 78.204C60.0143 76.236 59.5703 73.968 59.5703 71.4C59.5703 68.832 60.0143 66.576 60.9023 64.632C61.8143 62.664 63.1103 61.128 64.7903 60.024C66.4703 58.92 68.4743 58.368 70.8023 58.368C73.1543 58.368 75.1583 58.92 76.8143 60.024C78.4943 61.128 79.7783 62.664 80.6663 64.632C81.5543 66.576 81.9983 68.832 81.9983 71.4C81.9983 73.968 81.5543 76.236 80.6663 78.204C79.7783 80.148 78.4943 81.672 76.8143 82.776C75.1583 83.88 73.1663 84.432 70.8383 84.432ZM70.8023 80.076C72.0503 80.076 73.1423 79.728 74.0783 79.032C75.0143 78.312 75.7463 77.304 76.2743 76.008C76.8023 74.712 77.0663 73.176 77.0663 71.4C77.0663 69.6 76.8023 68.064 76.2743 66.792C75.7463 65.496 75.0143 64.5 74.0783 63.804C73.1423 63.108 72.0503 62.76 70.8023 62.76C69.5783 62.76 68.4863 63.108 67.5263 63.804C66.5903 64.5 65.8583 65.496 65.3303 66.792C64.8023 68.064 64.5383 69.6 64.5383 71.4C64.5383 73.176 64.8023 74.712 65.3303 76.008C65.8583 77.304 66.5903 78.312 67.5263 79.032C68.4863 79.728 69.5783 80.076 70.8023 80.076ZM95.975 84.432C93.623 84.432 91.607 83.88 89.927 82.776C88.247 81.672 86.951 80.148 86.039 78.204C85.151 76.236 84.707 73.968 84.707 71.4C84.707 68.832 85.151 66.576 86.039 64.632C86.951 62.664 88.247 61.128 89.927 60.024C91.607 58.92 93.611 58.368 95.939 58.368C98.291 58.368 100.295 58.92 101.951 60.024C103.631 61.128 104.915 62.664 105.803 64.632C106.691 66.576 107.135 68.832 107.135 71.4C107.135 73.968 106.691 76.236 105.803 78.204C104.915 80.148 103.631 81.672 101.951 82.776C100.295 83.88 98.303 84.432 95.975 84.432ZM95.939 80.076C97.187 80.076 98.279 79.728 99.215 79.032C100.151 78.312 100.883 77.304 101.411 76.008C101.939 74.712 102.203 73.176 102.203 71.4C102.203 69.6 101.939 68.064 101.411 66.792C100.883 65.496 100.151 64.5 99.215 63.804C98.279 63.108 97.187 62.76 95.939 62.76C94.715 62.76 93.623 63.108 92.663 63.804C91.727 64.5 90.995 65.496 90.467 66.792C89.939 68.064 89.675 69.6 89.675 71.4C89.675 73.176 89.939 74.712 90.467 76.008C90.995 77.304 91.727 78.312 92.663 79.032C93.623 79.728 94.715 80.076 95.939 80.076ZM108.205 88.428L110.257 79.284H114.937L111.373 88.428H108.205ZM128.248 84.432C125.896 84.432 123.88 83.88 122.2 82.776C120.52 81.672 119.224 80.148 118.312 78.204C117.424 76.236 116.98 73.968 116.98 71.4C116.98 68.832 117.424 66.576 118.312 64.632C119.224 62.664 120.52 61.128 122.2 60.024C123.88 58.92 125.884 58.368 128.212 58.368C130.564 58.368 132.568 58.92 134.224 60.024C135.904 61.128 137.188 62.664 138.076 64.632C138.964 66.576 139.408 68.832 139.408 71.4C139.408 73.968 138.964 76.236 138.076 78.204C137.188 80.148 135.904 81.672 134.224 82.776C132.568 83.88 130.576 84.432 128.248 84.432ZM128.212 80.076C129.46 80.076 130.552 79.728 131.488 79.032C132.424 78.312 133.156 77.304 133.684 76.008C134.212 74.712 134.476 73.176 134.476 71.4C134.476 69.6 134.212 68.064 133.684 66.792C133.156 65.496 132.424 64.5 131.488 63.804C130.552 63.108 129.46 62.76 128.212 62.76C126.988 62.76 125.896 63.108 124.936 63.804C124 64.5 123.268 65.496 122.74 66.792C122.212 68.064 121.948 69.6 121.948 71.4C121.948 73.176 122.212 74.712 122.74 76.008C123.268 77.304 124 78.312 124.936 79.032C125.896 79.728 126.988 80.076 128.212 80.076ZM153.385 84.432C151.033 84.432 149.017 83.88 147.337 82.776C145.657 81.672 144.361 80.148 143.449 78.204C142.561 76.236 142.117 73.968 142.117 71.4C142.117 68.832 142.561 66.576 143.449 64.632C144.361 62.664 145.657 61.128 147.337 60.024C149.017 58.92 151.021 58.368 153.349 58.368C155.701 58.368 157.705 58.92 159.361 60.024C161.041 61.128 162.325 62.664 163.213 64.632C164.101 66.576 164.545 68.832 164.545 71.4C164.545 73.968 164.101 76.236 163.213 78.204C162.325 80.148 161.041 81.672 159.361 82.776C157.705 83.88 155.713 84.432 153.385 84.432ZM153.349 80.076C154.597 80.076 155.689 79.728 156.625 79.032C157.561 78.312 158.293 77.304 158.821 76.008C159.349 74.712 159.613 73.176 159.613 71.4C159.613 69.6 159.349 68.064 158.821 66.792C158.293 65.496 157.561 64.5 156.625 63.804C155.689 63.108 154.597 62.76 153.349 62.76C152.125 62.76 151.033 63.108 150.073 63.804C149.137 64.5 148.405 65.496 147.877 66.792C147.349 68.064 147.085 69.6 147.085 71.4C147.085 73.176 147.349 74.712 147.877 76.008C148.405 77.304 149.137 78.312 150.073 79.032C151.033 79.728 152.125 80.076 153.349 80.076ZM178.522 84.432C176.17 84.432 174.154 83.88 172.474 82.776C170.794 81.672 169.498 80.148 168.586 78.204C167.698 76.236 167.254 73.968 167.254 71.4C167.254 68.832 167.698 66.576 168.586 64.632C169.498 62.664 170.794 61.128 172.474 60.024C174.154 58.92 176.158 58.368 178.486 58.368C180.838 58.368 182.842 58.92 184.498 60.024C186.178 61.128 187.462 62.664 188.35 64.632C189.238 66.576 189.682 68.832 189.682 71.4C189.682 73.968 189.238 76.236 188.35 78.204C187.462 80.148 186.178 81.672 184.498 82.776C182.842 83.88 180.85 84.432 178.522 84.432ZM178.486 80.076C179.734 80.076 180.826 79.728 181.762 79.032C182.698 78.312 183.43 77.304 183.958 76.008C184.486 74.712 184.75 73.176 184.75 71.4C184.75 69.6 184.486 68.064 183.958 66.792C183.43 65.496 182.698 64.5 181.762 63.804C180.826 63.108 179.734 62.76 178.486 62.76C177.262 62.76 176.17 63.108 175.21 63.804C174.274 64.5 173.542 65.496 173.014 66.792C172.486 68.064 172.222 69.6 172.222 71.4C172.222 73.176 172.486 74.712 173.014 76.008C173.542 77.304 174.274 78.312 175.21 79.032C176.17 79.728 177.262 80.076 178.486 80.076Z" fill="#1E1E1E"/>
<path d="M21.228 116.168C20.5093 116.168 19.8793 116.042 19.338 115.79C18.7967 115.538 18.372 115.179 18.064 114.712C17.7653 114.245 17.6113 113.69 17.602 113.046H19.17C19.1793 113.569 19.3613 114.012 19.716 114.376C20.0707 114.74 20.57 114.922 21.214 114.922C21.7833 114.922 22.2267 114.787 22.544 114.516C22.8707 114.236 23.034 113.881 23.034 113.452C23.034 113.107 22.9547 112.827 22.796 112.612C22.6467 112.397 22.4367 112.22 22.166 112.08C21.9047 111.94 21.6013 111.814 21.256 111.702C20.9107 111.59 20.5467 111.469 20.164 111.338C19.408 111.086 18.8387 110.759 18.456 110.358C18.0827 109.957 17.896 109.429 17.896 108.776C17.8867 108.225 18.0127 107.745 18.274 107.334C18.5447 106.923 18.918 106.606 19.394 106.382C19.8793 106.149 20.444 106.032 21.088 106.032C21.7227 106.032 22.278 106.149 22.754 106.382C23.2393 106.615 23.6173 106.942 23.888 107.362C24.1587 107.773 24.2987 108.253 24.308 108.804H22.74C22.74 108.552 22.6747 108.314 22.544 108.09C22.4133 107.857 22.222 107.665 21.97 107.516C21.718 107.367 21.41 107.292 21.046 107.292C20.5793 107.283 20.192 107.399 19.884 107.642C19.5853 107.885 19.436 108.221 19.436 108.65C19.436 109.033 19.548 109.327 19.772 109.532C19.996 109.737 20.304 109.91 20.696 110.05C21.088 110.181 21.536 110.335 22.04 110.512C22.5253 110.671 22.9593 110.862 23.342 111.086C23.7247 111.31 24.028 111.604 24.252 111.968C24.4853 112.332 24.602 112.794 24.602 113.354C24.602 113.849 24.476 114.311 24.224 114.74C23.972 115.16 23.594 115.505 23.09 115.776C22.586 116.037 21.9653 116.168 21.228 116.168ZM27.0085 107.74C26.7285 107.74 26.4951 107.656 26.3085 107.488C26.1311 107.311 26.0425 107.091 26.0425 106.83C26.0425 106.569 26.1311 106.354 26.3085 106.186C26.4951 106.009 26.7285 105.92 27.0085 105.92C27.2885 105.92 27.5171 106.009 27.6945 106.186C27.8811 106.354 27.9745 106.569 27.9745 106.83C27.9745 107.091 27.8811 107.311 27.6945 107.488C27.5171 107.656 27.2885 107.74 27.0085 107.74ZM26.2665 116V109.056H27.7505V116H26.2665ZM29.7095 116V109.056H31.0255L31.1375 110.274C31.3522 109.845 31.6648 109.509 32.0755 109.266C32.4955 109.014 32.9762 108.888 33.5175 108.888C34.3575 108.888 35.0155 109.149 35.4915 109.672C35.9768 110.195 36.2195 110.974 36.2195 112.01V116H34.7495V112.164C34.7495 110.82 34.1988 110.148 33.0975 110.148C32.5468 110.148 32.0895 110.344 31.7255 110.736C31.3708 111.128 31.1935 111.688 31.1935 112.416V116H29.7095ZM41.2573 116.168C40.576 116.168 39.9646 116.014 39.4233 115.706C38.8913 115.398 38.4713 114.973 38.1633 114.432C37.8646 113.881 37.7153 113.247 37.7153 112.528C37.7153 111.809 37.8646 111.179 38.1633 110.638C38.4713 110.087 38.8913 109.658 39.4233 109.35C39.9646 109.042 40.576 108.888 41.2573 108.888C42.116 108.888 42.8346 109.112 43.4133 109.56C44.0013 110.008 44.3793 110.615 44.5473 111.38H42.9933C42.9 110.997 42.6946 110.699 42.3773 110.484C42.06 110.269 41.6866 110.162 41.2573 110.162C40.8933 110.162 40.5573 110.255 40.2493 110.442C39.9413 110.619 39.694 110.885 39.5073 111.24C39.3206 111.585 39.2273 112.015 39.2273 112.528C39.2273 113.041 39.3206 113.475 39.5073 113.83C39.694 114.175 39.9413 114.441 40.2493 114.628C40.5573 114.815 40.8933 114.908 41.2573 114.908C41.6866 114.908 42.06 114.801 42.3773 114.586C42.6946 114.371 42.9 114.068 42.9933 113.676H44.5473C44.3886 114.423 44.0153 115.025 43.4273 115.482C42.8393 115.939 42.116 116.168 41.2573 116.168ZM49.4048 116.168C48.7234 116.168 48.1168 116.019 47.5848 115.72C47.0621 115.412 46.6514 114.987 46.3528 114.446C46.0541 113.905 45.9048 113.275 45.9048 112.556C45.9048 111.828 46.0494 111.189 46.3388 110.638C46.6374 110.087 47.0481 109.658 47.5708 109.35C48.1028 109.042 48.7188 108.888 49.4188 108.888C50.1001 108.888 50.6928 109.042 51.1968 109.35C51.7008 109.649 52.0928 110.05 52.3728 110.554C52.6528 111.058 52.7928 111.613 52.7928 112.22C52.7928 112.313 52.7881 112.416 52.7788 112.528C52.7788 112.631 52.7741 112.747 52.7648 112.878H47.3608C47.4074 113.55 47.6268 114.063 48.0188 114.418C48.4201 114.763 48.8821 114.936 49.4048 114.936C49.8248 114.936 50.1748 114.843 50.4548 114.656C50.7441 114.46 50.9588 114.199 51.0988 113.872H52.5828C52.3961 114.525 52.0228 115.071 51.4628 115.51C50.9121 115.949 50.2261 116.168 49.4048 116.168ZM49.4048 110.106C48.9101 110.106 48.4714 110.255 48.0888 110.554C47.7061 110.843 47.4728 111.282 47.3888 111.87H51.3088C51.2808 111.329 51.0894 110.899 50.7348 110.582C50.3801 110.265 49.9368 110.106 49.4048 110.106ZM57.8599 116V105.92H59.3439V116H57.8599ZM63.5752 116.168C62.9872 116.168 62.5018 116.07 62.1192 115.874C61.7365 115.678 61.4518 115.421 61.2652 115.104C61.0785 114.777 60.9852 114.423 60.9852 114.04C60.9852 113.368 61.2465 112.836 61.7692 112.444C62.2918 112.052 63.0385 111.856 64.0092 111.856H65.8292V111.73C65.8292 111.189 65.6798 110.783 65.3812 110.512C65.0918 110.241 64.7138 110.106 64.2472 110.106C63.8365 110.106 63.4772 110.209 63.1692 110.414C62.8705 110.61 62.6885 110.904 62.6232 111.296H61.1392C61.1858 110.792 61.3538 110.363 61.6432 110.008C61.9418 109.644 62.3152 109.369 62.7632 109.182C63.2205 108.986 63.7198 108.888 64.2612 108.888C65.2318 108.888 65.9832 109.145 66.5152 109.658C67.0472 110.162 67.3132 110.853 67.3132 111.73V116H66.0252L65.8992 114.81C65.7032 115.193 65.4185 115.515 65.0452 115.776C64.6718 116.037 64.1818 116.168 63.5752 116.168ZM63.8692 114.964C64.2705 114.964 64.6065 114.871 64.8772 114.684C65.1572 114.488 65.3718 114.231 65.5212 113.914C65.6798 113.597 65.7778 113.247 65.8152 112.864H64.1632C63.5752 112.864 63.1552 112.967 62.9032 113.172C62.6605 113.377 62.5392 113.634 62.5392 113.942C62.5392 114.259 62.6558 114.511 62.8892 114.698C63.1318 114.875 63.4585 114.964 63.8692 114.964ZM71.8155 116.168C70.9381 116.168 70.2148 115.953 69.6455 115.524C69.0761 115.095 68.7495 114.525 68.6655 113.816H70.1635C70.2381 114.133 70.4155 114.409 70.6955 114.642C70.9755 114.866 71.3441 114.978 71.8015 114.978C72.2495 114.978 72.5761 114.885 72.7815 114.698C72.9868 114.511 73.0895 114.297 73.0895 114.054C73.0895 113.699 72.9448 113.461 72.6555 113.34C72.3755 113.209 71.9835 113.093 71.4795 112.99C71.0875 112.906 70.6955 112.794 70.3035 112.654C69.9208 112.514 69.5988 112.318 69.3375 112.066C69.0855 111.805 68.9595 111.455 68.9595 111.016C68.9595 110.409 69.1928 109.905 69.6595 109.504C70.1261 109.093 70.7795 108.888 71.6195 108.888C72.3941 108.888 73.0195 109.075 73.4955 109.448C73.9808 109.821 74.2655 110.349 74.3495 111.03H72.9215C72.8748 110.731 72.7348 110.498 72.5015 110.33C72.2775 110.162 71.9741 110.078 71.5915 110.078C71.2181 110.078 70.9288 110.157 70.7235 110.316C70.5181 110.465 70.4155 110.661 70.4155 110.904C70.4155 111.147 70.5555 111.338 70.8355 111.478C71.1248 111.618 71.5028 111.744 71.9695 111.856C72.4361 111.959 72.8655 112.08 73.2575 112.22C73.6588 112.351 73.9808 112.547 74.2235 112.808C74.4661 113.069 74.5875 113.452 74.5875 113.956C74.5968 114.591 74.3495 115.118 73.8455 115.538C73.3508 115.958 72.6741 116.168 71.8155 116.168ZM78.8598 116C78.1784 116 77.6371 115.837 77.2358 115.51C76.8344 115.174 76.6338 114.581 76.6338 113.732V110.302H75.4438V109.056H76.6338L76.8158 107.292H78.1178V109.056H80.0778V110.302H78.1178V113.732C78.1178 114.115 78.1971 114.381 78.3558 114.53C78.5238 114.67 78.8084 114.74 79.2098 114.74H80.0078V116H78.8598ZM85.1353 116V109.056H86.4513L86.5773 110.036C86.8013 109.681 87.0953 109.401 87.4593 109.196C87.8326 108.991 88.2619 108.888 88.7473 108.888C89.8486 108.888 90.6139 109.322 91.0433 110.19C91.2953 109.789 91.6313 109.471 92.0513 109.238C92.4806 109.005 92.9426 108.888 93.4373 108.888C94.3053 108.888 94.9866 109.149 95.4813 109.672C95.9759 110.195 96.2233 110.974 96.2233 112.01V116H94.7393V112.164C94.7393 110.82 94.2259 110.148 93.1993 110.148C92.6766 110.148 92.2473 110.344 91.9113 110.736C91.5846 111.128 91.4213 111.688 91.4213 112.416V116H89.9373V112.164C89.9373 110.82 89.4193 110.148 88.3833 110.148C87.8699 110.148 87.4453 110.344 87.1093 110.736C86.7826 111.128 86.6193 111.688 86.6193 112.416V116H85.1353ZM101.207 116.168C100.545 116.168 99.9475 116.019 99.4155 115.72C98.8928 115.412 98.4775 114.987 98.1695 114.446C97.8615 113.895 97.7075 113.256 97.7075 112.528C97.7075 111.8 97.8615 111.165 98.1695 110.624C98.4868 110.073 98.9115 109.649 99.4435 109.35C99.9755 109.042 100.568 108.888 101.221 108.888C101.884 108.888 102.477 109.042 102.999 109.35C103.531 109.649 103.951 110.073 104.259 110.624C104.577 111.165 104.735 111.8 104.735 112.528C104.735 113.256 104.577 113.895 104.259 114.446C103.951 114.987 103.531 115.412 102.999 115.72C102.467 116.019 101.87 116.168 101.207 116.168ZM101.207 114.894C101.562 114.894 101.889 114.805 102.187 114.628C102.495 114.451 102.743 114.189 102.929 113.844C103.116 113.489 103.209 113.051 103.209 112.528C103.209 112.005 103.116 111.571 102.929 111.226C102.752 110.871 102.509 110.605 102.201 110.428C101.903 110.251 101.576 110.162 101.221 110.162C100.867 110.162 100.535 110.251 100.227 110.428C99.9288 110.605 99.6862 110.871 99.4995 111.226C99.3128 111.571 99.2195 112.005 99.2195 112.528C99.2195 113.051 99.3128 113.489 99.4995 113.844C99.6862 114.189 99.9288 114.451 100.227 114.628C100.526 114.805 100.853 114.894 101.207 114.894ZM106.34 116V109.056H107.656L107.768 110.274C107.983 109.845 108.296 109.509 108.706 109.266C109.126 109.014 109.607 108.888 110.148 108.888C110.988 108.888 111.646 109.149 112.122 109.672C112.608 110.195 112.85 110.974 112.85 112.01V116H111.38V112.164C111.38 110.82 110.83 110.148 109.728 110.148C109.178 110.148 108.72 110.344 108.356 110.736C108.002 111.128 107.824 111.688 107.824 112.416V116H106.34ZM117.51 116C116.829 116 116.287 115.837 115.886 115.51C115.485 115.174 115.284 114.581 115.284 113.732V110.302H114.094V109.056H115.284L115.466 107.292H116.768V109.056H118.728V110.302H116.768V113.732C116.768 114.115 116.847 114.381 117.006 114.53C117.174 114.67 117.459 114.74 117.86 114.74H118.658V116H117.51ZM120.258 116V105.92H121.742V110.176C121.976 109.775 122.298 109.462 122.708 109.238C123.128 109.005 123.59 108.888 124.094 108.888C124.925 108.888 125.578 109.149 126.054 109.672C126.53 110.195 126.768 110.974 126.768 112.01V116H125.298V112.164C125.298 110.82 124.762 110.148 123.688 110.148C123.128 110.148 122.662 110.344 122.288 110.736C121.924 111.128 121.742 111.688 121.742 112.416V116H120.258Z" fill="#3C3C3C"/>
<path d="M26.5 129H30.5V133" stroke="#0D805D" stroke-linecap="round" stroke-linejoin="round"/>
<path d="M30.5 129L24.85 134.65C24.7565 134.742 24.6309 134.793 24.5 134.793C24.3691 134.793 24.2435 134.742 24.15 134.65L21.85 132.35C21.7565 132.258 21.6309 132.207 21.5 132.207C21.3691 132.207 21.2435 132.258 21.15 132.35L17.5 136" stroke="#0D805D" stroke-linecap="round" stroke-linejoin="round"/>
<path d="M40.024 129.268L42.604 127.132H43.672V136H42.304V128.992L40.768 130.24L40.024 129.268ZM45.0098 128.38V127.132H50.6498V128.008L47.2898 136H45.8258L49.1018 128.38H45.0098ZM55.135 130.72C54.687 131.144 54.155 131.356 53.539 131.356C52.915 131.356 52.379 131.144 51.931 130.72C51.491 130.288 51.271 129.772 51.271 129.172C51.271 128.572 51.491 128.056 51.931 127.624C52.379 127.192 52.915 126.976 53.539 126.976C54.163 126.976 54.695 127.192 55.135 127.624C55.575 128.056 55.795 128.572 55.795 129.172C55.795 129.772 55.575 130.288 55.135 130.72ZM53.575 136H52.243L58.747 127.132H60.103L53.575 136ZM53.539 130.384C53.875 130.384 54.159 130.268 54.391 130.036C54.631 129.804 54.751 129.516 54.751 129.172C54.751 128.828 54.631 128.54 54.391 128.308C54.159 128.076 53.875 127.96 53.539 127.96C53.195 127.96 52.903 128.076 52.663 128.308C52.431 128.54 52.315 128.828 52.315 129.172C52.315 129.516 52.431 129.804 52.663 130.036C52.903 130.268 53.195 130.384 53.539 130.384ZM58.867 136.144C58.243 136.144 57.707 135.932 57.259 135.508C56.819 135.092 56.599 134.58 56.599 133.972C56.599 133.372 56.819 132.856 57.259 132.424C57.707 131.992 58.243 131.776 58.867 131.776C59.491 131.776 60.023 131.992 60.463 132.424C60.911 132.856 61.135 133.372 61.135 133.972C61.135 134.572 60.911 135.084 60.463 135.508C60.015 135.932 59.483 136.144 58.867 136.144ZM60.091 133.972C60.091 133.62 59.971 133.328 59.731 133.096C59.499 132.864 59.211 132.748 58.867 132.748C58.523 132.748 58.231 132.864 57.991 133.096C57.759 133.328 57.643 133.62 57.643 133.972C57.643 134.308 57.763 134.592 58.003 134.824C58.243 135.056 58.531 135.172 58.867 135.172C59.203 135.172 59.491 135.056 59.731 134.824C59.971 134.592 60.091 134.308 60.091 133.972Z" fill="#0D805D"/>
</svg>
