<svg width="252" height="162" viewBox="0 0 252 162" fill="none" xmlns="http://www.w3.org/2000/svg">
<rect x="0.5" y="0.5" width="251" height="161" rx="4.5" fill="white"/>
<rect x="0.5" y="0.5" width="251" height="161" rx="4.5" stroke="#F1F2F3"/>
<path d="M20.776 36V26.112H17.464V24.8H25.704V26.112H22.376V36H20.776ZM29.4868 36.192C28.7294 36.192 28.0468 36.0213 27.4388 35.68C26.8414 35.328 26.3668 34.8373 26.0148 34.208C25.6734 33.568 25.5028 32.8267 25.5028 31.984C25.5028 31.1413 25.6788 30.4053 26.0308 29.776C26.3828 29.136 26.8628 28.6453 27.4708 28.304C28.0788 27.952 28.7561 27.776 29.5028 27.776C30.2708 27.776 30.9534 27.952 31.5508 28.304C32.1588 28.6453 32.6334 29.1307 32.9748 29.76C33.3268 30.3893 33.5028 31.1307 33.5028 31.984C33.5028 32.8267 33.3268 33.568 32.9748 34.208C32.6228 34.8373 32.1428 35.328 31.5348 35.68C30.9374 36.0213 30.2548 36.192 29.4868 36.192ZM29.4868 34.816C29.9241 34.816 30.3188 34.7147 30.6708 34.512C31.0334 34.2987 31.3214 33.9787 31.5348 33.552C31.7588 33.1253 31.8708 32.6027 31.8708 31.984C31.8708 31.3547 31.7641 30.832 31.5508 30.416C31.3374 29.9893 31.0494 29.6747 30.6868 29.472C30.3348 29.2587 29.9454 29.152 29.5188 29.152C29.1028 29.152 28.7081 29.2587 28.3348 29.472C27.9721 29.6747 27.6788 29.9893 27.4548 30.416C27.2414 30.832 27.1348 31.3547 27.1348 31.984C27.1348 32.6027 27.2414 33.1253 27.4548 33.552C27.6788 33.9787 27.9668 34.2987 28.3188 34.512C28.6814 34.7147 29.0708 34.816 29.4868 34.816ZM38.3688 36C37.8674 36 37.4248 35.92 37.0408 35.76C36.6674 35.6 36.3794 35.3333 36.1768 34.96C35.9848 34.5867 35.8888 34.08 35.8888 33.44V29.312H34.4967V27.968H35.8888L36.0807 25.952H37.4888V27.968H39.7608V29.312H37.4888V33.456C37.4888 33.9147 37.5794 34.2293 37.7608 34.4C37.9528 34.56 38.2834 34.64 38.7528 34.64H39.6808V36H38.3688ZM44.1975 36.192C43.5362 36.192 42.9868 36.08 42.5495 35.856C42.1122 35.632 41.7868 35.3333 41.5735 34.96C41.3602 34.5867 41.2535 34.176 41.2535 33.728C41.2535 33.2053 41.3868 32.7573 41.6535 32.384C41.9308 32 42.3255 31.7067 42.8375 31.504C43.3602 31.3013 43.9788 31.2 44.6935 31.2H46.7895C46.7895 30.7307 46.7202 30.3413 46.5815 30.032C46.4428 29.7227 46.2348 29.4933 45.9575 29.344C45.6908 29.184 45.3495 29.104 44.9335 29.104C44.4535 29.104 44.0375 29.2213 43.6855 29.456C43.3442 29.6907 43.1362 30.032 43.0615 30.48H41.4455C41.5095 29.904 41.7015 29.4187 42.0215 29.024C42.3522 28.6187 42.7735 28.3093 43.2855 28.096C43.7975 27.8827 44.3468 27.776 44.9335 27.776C45.6802 27.776 46.3095 27.9093 46.8215 28.176C47.3442 28.4427 47.7335 28.8213 47.9895 29.312C48.2562 29.792 48.3895 30.3627 48.3895 31.024V36H46.9975L46.8695 34.64C46.7522 34.8533 46.6135 35.056 46.4535 35.248C46.2935 35.44 46.1015 35.6053 45.8775 35.744C45.6642 35.8827 45.4135 35.9893 45.1255 36.064C44.8482 36.1493 44.5388 36.192 44.1975 36.192ZM44.5015 34.896C44.8428 34.896 45.1522 34.8267 45.4295 34.688C45.7068 34.5493 45.9415 34.3627 46.1335 34.128C46.3362 33.8827 46.4855 33.6107 46.5815 33.312C46.6882 33.0133 46.7468 32.6987 46.7575 32.368V32.336H44.8535C44.3948 32.336 44.0215 32.3947 43.7335 32.512C43.4562 32.6187 43.2535 32.768 43.1255 32.96C42.9975 33.152 42.9335 33.376 42.9335 33.632C42.9335 33.888 42.9922 34.112 43.1095 34.304C43.2375 34.4853 43.4188 34.6293 43.6535 34.736C43.8882 34.8427 44.1708 34.896 44.5015 34.896ZM50.4318 36V24.48H52.0318V36H50.4318ZM58.3868 36V24.8H62.2108C63.0961 24.8 63.8268 24.9493 64.4028 25.248C64.9788 25.536 65.4054 25.936 65.6828 26.448C65.9708 26.9493 66.1148 27.5147 66.1148 28.144C66.1148 28.7627 65.9761 29.328 65.6988 29.84C65.4321 30.3413 65.0108 30.7467 64.4348 31.056C63.8588 31.3547 63.1174 31.504 62.2108 31.504H59.9868V36H58.3868ZM59.9868 30.176H62.1468C62.9788 30.176 63.5708 29.9947 63.9228 29.632C64.2854 29.2587 64.4668 28.7627 64.4668 28.144C64.4668 27.504 64.2854 27.008 63.9228 26.656C63.5708 26.304 62.9788 26.128 62.1468 26.128H59.9868V30.176ZM70.01 36.192C69.3487 36.192 68.7993 36.08 68.362 35.856C67.9247 35.632 67.5993 35.3333 67.386 34.96C67.1727 34.5867 67.066 34.176 67.066 33.728C67.066 33.2053 67.1993 32.7573 67.466 32.384C67.7433 32 68.138 31.7067 68.65 31.504C69.1727 31.3013 69.7913 31.2 70.506 31.2H72.602C72.602 30.7307 72.5327 30.3413 72.394 30.032C72.2553 29.7227 72.0473 29.4933 71.77 29.344C71.5033 29.184 71.162 29.104 70.746 29.104C70.266 29.104 69.85 29.2213 69.498 29.456C69.1567 29.6907 68.9487 30.032 68.874 30.48H67.258C67.322 29.904 67.514 29.4187 67.834 29.024C68.1647 28.6187 68.586 28.3093 69.098 28.096C69.61 27.8827 70.1593 27.776 70.746 27.776C71.4927 27.776 72.122 27.9093 72.634 28.176C73.1567 28.4427 73.546 28.8213 73.802 29.312C74.0687 29.792 74.202 30.3627 74.202 31.024V36H72.81L72.682 34.64C72.5647 34.8533 72.426 35.056 72.266 35.248C72.106 35.44 71.914 35.6053 71.69 35.744C71.4767 35.8827 71.226 35.9893 70.938 36.064C70.6607 36.1493 70.3513 36.192 70.01 36.192ZM70.314 34.896C70.6553 34.896 70.9647 34.8267 71.242 34.688C71.5193 34.5493 71.754 34.3627 71.946 34.128C72.1487 33.8827 72.298 33.6107 72.394 33.312C72.5007 33.0133 72.5593 32.6987 72.57 32.368V32.336H70.666C70.2073 32.336 69.834 32.3947 69.546 32.512C69.2687 32.6187 69.066 32.768 68.938 32.96C68.81 33.152 68.746 33.376 68.746 33.632C68.746 33.888 68.8047 34.112 68.922 34.304C69.05 34.4853 69.2313 34.6293 69.466 34.736C69.7007 34.8427 69.9833 34.896 70.314 34.896ZM76.9223 39.52L78.8903 35.104H78.4103L75.2263 27.968H76.9703L79.4983 33.792L82.0423 27.968H83.7222L78.6023 39.52H76.9223ZM85.1349 36V27.968H86.5749L86.7189 29.488C86.9002 29.1253 87.1295 28.8213 87.4069 28.576C87.6949 28.32 88.0309 28.1227 88.4149 27.984C88.8095 27.8453 89.2522 27.776 89.7429 27.776V29.456H89.2149C88.8735 29.456 88.5535 29.4987 88.2549 29.584C87.9562 29.6693 87.6895 29.808 87.4549 30C87.2309 30.192 87.0549 30.4533 86.9269 30.784C86.7989 31.1147 86.7349 31.5253 86.7349 32.016V36H85.1349ZM94.6743 36.192C93.9169 36.192 93.2343 36.0213 92.6263 35.68C92.0289 35.328 91.5543 34.8373 91.2023 34.208C90.8609 33.568 90.6903 32.8267 90.6903 31.984C90.6903 31.1413 90.8663 30.4053 91.2183 29.776C91.5703 29.136 92.0503 28.6453 92.6583 28.304C93.2663 27.952 93.9436 27.776 94.6903 27.776C95.4583 27.776 96.1409 27.952 96.7383 28.304C97.3463 28.6453 97.8209 29.1307 98.1623 29.76C98.5143 30.3893 98.6903 31.1307 98.6903 31.984C98.6903 32.8267 98.5143 33.568 98.1623 34.208C97.8103 34.8373 97.3303 35.328 96.7223 35.68C96.1249 36.0213 95.4423 36.192 94.6743 36.192ZM94.6743 34.816C95.1116 34.816 95.5063 34.7147 95.8583 34.512C96.2209 34.2987 96.5089 33.9787 96.7223 33.552C96.9463 33.1253 97.0583 32.6027 97.0583 31.984C97.0583 31.3547 96.9516 30.832 96.7383 30.416C96.5249 29.9893 96.2369 29.6747 95.8743 29.472C95.5223 29.2587 95.1329 29.152 94.7063 29.152C94.2903 29.152 93.8956 29.2587 93.5223 29.472C93.1596 29.6747 92.8663 29.9893 92.6423 30.416C92.4289 30.832 92.3223 31.3547 92.3223 31.984C92.3223 32.6027 92.4289 33.1253 92.6423 33.552C92.8663 33.9787 93.1543 34.2987 93.5063 34.512C93.8689 34.7147 94.2583 34.816 94.6743 34.816ZM100.557 36V24.48H102.157V36H100.557ZM104.338 36V24.48H105.938V36H104.338ZM112.645 36V26.848C112.645 26.2933 112.736 25.84 112.917 25.488C113.109 25.136 113.386 24.88 113.749 24.72C114.112 24.56 114.549 24.48 115.061 24.48H115.973V25.84H115.317C114.933 25.84 114.656 25.92 114.485 26.08C114.325 26.2293 114.245 26.496 114.245 26.88V36H112.645ZM111.461 29.312V27.968H116.165V29.312H111.461ZM121.143 36.192C120.386 36.192 119.703 36.0213 119.095 35.68C118.498 35.328 118.023 34.8373 117.671 34.208C117.33 33.568 117.159 32.8267 117.159 31.984C117.159 31.1413 117.335 30.4053 117.687 29.776C118.039 29.136 118.519 28.6453 119.127 28.304C119.735 27.952 120.412 27.776 121.159 27.776C121.927 27.776 122.61 27.952 123.207 28.304C123.815 28.6453 124.29 29.1307 124.631 29.76C124.983 30.3893 125.159 31.1307 125.159 31.984C125.159 32.8267 124.983 33.568 124.631 34.208C124.279 34.8373 123.799 35.328 123.191 35.68C122.594 36.0213 121.911 36.192 121.143 36.192ZM121.143 34.816C121.58 34.816 121.975 34.7147 122.327 34.512C122.69 34.2987 122.978 33.9787 123.191 33.552C123.415 33.1253 123.527 32.6027 123.527 31.984C123.527 31.3547 123.42 30.832 123.207 30.416C122.994 29.9893 122.706 29.6747 122.343 29.472C121.991 29.2587 121.602 29.152 121.175 29.152C120.759 29.152 120.364 29.2587 119.991 29.472C119.628 29.6747 119.335 29.9893 119.111 30.416C118.898 30.832 118.791 31.3547 118.791 31.984C118.791 32.6027 118.898 33.1253 119.111 33.552C119.335 33.9787 119.623 34.2987 119.975 34.512C120.338 34.7147 120.727 34.816 121.143 34.816ZM127.026 36V27.968H128.466L128.61 29.488C128.791 29.1253 129.02 28.8213 129.298 28.576C129.586 28.32 129.922 28.1227 130.306 27.984C130.7 27.8453 131.143 27.776 131.634 27.776V29.456H131.106C130.764 29.456 130.444 29.4987 130.146 29.584C129.847 29.6693 129.58 29.808 129.346 30C129.122 30.192 128.946 30.4533 128.818 30.784C128.69 31.1147 128.626 31.5253 128.626 32.016V36H127.026ZM140.525 36C140.024 36 139.581 35.92 139.197 35.76C138.824 35.6 138.536 35.3333 138.333 34.96C138.141 34.5867 138.045 34.08 138.045 33.44V29.312H136.653V27.968H138.045L138.237 25.952H139.645V27.968H141.917V29.312H139.645V33.456C139.645 33.9147 139.736 34.2293 139.917 34.4C140.109 34.56 140.44 34.64 140.909 34.64H141.837V36H140.525ZM143.682 36V24.48H145.282V29.28C145.548 28.8107 145.916 28.4427 146.386 28.176C146.866 27.9093 147.394 27.776 147.97 27.776C148.61 27.776 149.159 27.904 149.618 28.16C150.076 28.416 150.428 28.8053 150.674 29.328C150.919 29.8507 151.042 30.5013 151.042 31.28V36H149.458V31.456C149.458 30.688 149.298 30.112 148.978 29.728C148.658 29.3333 148.183 29.136 147.554 29.136C147.127 29.136 146.738 29.2427 146.386 29.456C146.044 29.6587 145.772 29.952 145.57 30.336C145.378 30.72 145.282 31.1947 145.282 31.76V36H143.682ZM156.736 36.192C155.958 36.192 155.27 36.0213 154.672 35.68C154.075 35.328 153.606 34.8373 153.264 34.208C152.934 33.5787 152.768 32.8427 152.768 32C152.768 31.1573 152.934 30.4213 153.264 29.792C153.606 29.1627 154.075 28.672 154.672 28.32C155.27 27.9573 155.963 27.776 156.752 27.776C157.542 27.776 158.219 27.952 158.784 28.304C159.35 28.6453 159.787 29.1093 160.096 29.696C160.406 30.272 160.56 30.912 160.56 31.616C160.56 31.7227 160.56 31.84 160.56 31.968C160.56 32.0853 160.55 32.2133 160.528 32.352H153.936V31.232H158.96C158.928 30.5707 158.704 30.0533 158.288 29.68C157.872 29.296 157.355 29.104 156.736 29.104C156.31 29.104 155.91 29.2 155.536 29.392C155.174 29.584 154.88 29.872 154.656 30.256C154.443 30.6293 154.336 31.104 154.336 31.68V32.128C154.336 32.7253 154.443 33.2267 154.656 33.632C154.88 34.0373 155.174 34.3467 155.536 34.56C155.899 34.7627 156.294 34.864 156.72 34.864C157.232 34.864 157.654 34.752 157.984 34.528C158.326 34.2933 158.576 33.984 158.736 33.6H160.336C160.187 34.1013 159.947 34.5493 159.616 34.944C159.296 35.328 158.891 35.632 158.4 35.856C157.92 36.08 157.366 36.192 156.736 36.192ZM166.432 36V27.968H167.872L167.984 29.088C168.24 28.6827 168.581 28.3627 169.008 28.128C169.434 27.8933 169.914 27.776 170.448 27.776C170.853 27.776 171.221 27.8293 171.552 27.936C171.893 28.0427 172.192 28.208 172.448 28.432C172.704 28.656 172.912 28.9387 173.072 29.28C173.349 28.8 173.728 28.432 174.208 28.176C174.698 27.9093 175.221 27.776 175.776 27.776C176.426 27.776 176.986 27.904 177.456 28.16C177.925 28.416 178.282 28.8053 178.528 29.328C178.773 29.8507 178.896 30.5013 178.896 31.28V36H177.312V31.44C177.312 30.6827 177.157 30.112 176.848 29.728C176.549 29.3333 176.106 29.136 175.52 29.136C175.125 29.136 174.773 29.2373 174.464 29.44C174.154 29.6427 173.909 29.9413 173.728 30.336C173.557 30.72 173.472 31.1893 173.472 31.744V36H171.872V31.44C171.872 30.6827 171.717 30.112 171.408 29.728C171.098 29.3333 170.656 29.136 170.08 29.136C169.696 29.136 169.349 29.2373 169.04 29.44C168.73 29.6427 168.485 29.9413 168.304 30.336C168.122 30.72 168.032 31.1893 168.032 31.744V36H166.432ZM184.627 36.192C183.87 36.192 183.187 36.0213 182.579 35.68C181.982 35.328 181.507 34.8373 181.155 34.208C180.814 33.568 180.643 32.8267 180.643 31.984C180.643 31.1413 180.819 30.4053 181.171 29.776C181.523 29.136 182.003 28.6453 182.611 28.304C183.219 27.952 183.897 27.776 184.643 27.776C185.411 27.776 186.094 27.952 186.691 28.304C187.299 28.6453 187.774 29.1307 188.115 29.76C188.467 30.3893 188.643 31.1307 188.643 31.984C188.643 32.8267 188.467 33.568 188.115 34.208C187.763 34.8373 187.283 35.328 186.675 35.68C186.078 36.0213 185.395 36.192 184.627 36.192ZM184.627 34.816C185.065 34.816 185.459 34.7147 185.811 34.512C186.174 34.2987 186.462 33.9787 186.675 33.552C186.899 33.1253 187.011 32.6027 187.011 31.984C187.011 31.3547 186.905 30.832 186.691 30.416C186.478 29.9893 186.19 29.6747 185.827 29.472C185.475 29.2587 185.086 29.152 184.659 29.152C184.243 29.152 183.849 29.2587 183.475 29.472C183.113 29.6747 182.819 29.9893 182.595 30.416C182.382 30.832 182.275 31.3547 182.275 31.984C182.275 32.6027 182.382 33.1253 182.595 33.552C182.819 33.9787 183.107 34.2987 183.459 34.512C183.822 34.7147 184.211 34.816 184.627 34.816ZM190.51 36V27.968H191.95L192.046 29.344C192.302 28.864 192.665 28.4853 193.134 28.208C193.603 27.92 194.147 27.776 194.766 27.776C195.395 27.776 195.939 27.904 196.398 28.16C196.857 28.416 197.214 28.8053 197.47 29.328C197.726 29.84 197.854 30.4853 197.854 31.264V36H196.254V31.424C196.254 30.6773 196.089 30.112 195.758 29.728C195.427 29.3333 194.953 29.136 194.334 29.136C193.907 29.136 193.523 29.2373 193.182 29.44C192.851 29.6427 192.59 29.936 192.398 30.32C192.206 30.704 192.11 31.1787 192.11 31.744V36H190.51ZM203.213 36C202.711 36 202.269 35.92 201.885 35.76C201.511 35.6 201.223 35.3333 201.021 34.96C200.829 34.5867 200.733 34.08 200.733 33.44V29.312H199.34V27.968H200.733L200.924 25.952H202.333V27.968H204.605V29.312H202.333V33.456C202.333 33.9147 202.423 34.2293 202.605 34.4C202.797 34.56 203.127 34.64 203.597 34.64H204.525V36H203.213ZM206.369 36V24.48H207.969V29.28C208.236 28.8107 208.604 28.4427 209.073 28.176C209.553 27.9093 210.081 27.776 210.657 27.776C211.297 27.776 211.847 27.904 212.305 28.16C212.764 28.416 213.116 28.8053 213.361 29.328C213.607 29.8507 213.729 30.5013 213.729 31.28V36H212.145V31.456C212.145 30.688 211.985 30.112 211.665 29.728C211.345 29.3333 210.871 29.136 210.241 29.136C209.815 29.136 209.425 29.2427 209.073 29.456C208.732 29.6587 208.46 29.952 208.257 30.336C208.065 30.72 207.969 31.1947 207.969 31.76V36H206.369Z" fill="#2F2B2B" fill-opacity="0.69"/>
<path d="M26.108 87.132V55.488H28.484V87.132H26.108ZM27.62 84.432C25.796 84.432 24.164 84.12 22.724 83.496C21.308 82.872 20.18 81.96 19.34 80.76C18.524 79.56 18.092 78.108 18.044 76.404H23.228C23.252 77.148 23.432 77.82 23.768 78.42C24.128 79.02 24.632 79.5 25.28 79.86C25.928 80.196 26.696 80.364 27.584 80.364C28.352 80.364 29.012 80.256 29.564 80.04C30.14 79.8 30.584 79.452 30.896 78.996C31.232 78.54 31.4 77.976 31.4 77.304C31.4 76.584 31.22 75.984 30.86 75.504C30.524 75.024 30.044 74.616 29.42 74.28C28.796 73.944 28.088 73.644 27.296 73.38C26.504 73.092 25.688 72.804 24.848 72.516C22.832 71.82 21.284 70.932 20.204 69.852C19.148 68.748 18.62 67.296 18.62 65.496C18.62 64.032 18.98 62.772 19.7 61.716C20.444 60.636 21.464 59.808 22.76 59.232C24.056 58.656 25.532 58.368 27.188 58.368C28.892 58.368 30.38 58.668 31.652 59.268C32.948 59.844 33.968 60.684 34.712 61.788C35.48 62.892 35.876 64.188 35.9 65.676H30.68C30.68 65.052 30.524 64.5 30.212 64.02C29.924 63.516 29.504 63.12 28.952 62.832C28.424 62.544 27.8 62.4 27.08 62.4C26.456 62.4 25.88 62.496 25.352 62.688C24.848 62.88 24.44 63.18 24.128 63.588C23.84 63.996 23.696 64.524 23.696 65.172C23.696 65.772 23.84 66.276 24.128 66.684C24.416 67.092 24.812 67.452 25.316 67.764C25.844 68.052 26.468 68.34 27.188 68.628C27.908 68.892 28.7 69.168 29.564 69.456C30.836 69.888 32 70.404 33.056 71.004C34.112 71.58 34.952 72.336 35.576 73.272C36.2 74.208 36.512 75.432 36.512 76.944C36.512 78.264 36.164 79.5 35.468 80.652C34.796 81.78 33.8 82.692 32.48 83.388C31.184 84.084 29.564 84.432 27.62 84.432ZM48.0416 84.432C46.3856 84.432 44.8736 84.132 43.5056 83.532C42.1616 82.932 41.0816 82.02 40.2656 80.796C39.4496 79.572 39.0176 78.024 38.9696 76.152H43.7216C43.7456 76.944 43.9256 77.664 44.2616 78.312C44.5976 78.936 45.0896 79.44 45.7376 79.824C46.3856 80.184 47.1536 80.364 48.0416 80.364C48.8816 80.364 49.6016 80.196 50.2016 79.86C50.8016 79.524 51.2456 79.08 51.5336 78.528C51.8456 77.976 52.0016 77.34 52.0016 76.62C52.0016 75.756 51.7976 75.048 51.3896 74.496C50.9816 73.92 50.4056 73.488 49.6616 73.2C48.9416 72.888 48.1136 72.732 47.1776 72.732H45.3056V68.736H47.1776C48.3296 68.736 49.3016 68.472 50.0936 67.944C50.9096 67.392 51.3176 66.564 51.3176 65.46C51.3176 64.572 51.0176 63.852 50.4176 63.3C49.8416 62.748 49.0376 62.472 48.0056 62.472C46.8776 62.472 45.9896 62.808 45.3416 63.48C44.7176 64.152 44.3696 64.98 44.2976 65.964H39.5456C39.6176 64.38 40.0136 63.024 40.7336 61.896C41.4536 60.744 42.4376 59.868 43.6856 59.268C44.9336 58.668 46.3736 58.368 48.0056 58.368C49.7576 58.368 51.2216 58.68 52.3976 59.304C53.5976 59.904 54.5096 60.72 55.1336 61.752C55.7576 62.76 56.0696 63.876 56.0696 65.1C56.0696 66.06 55.8776 66.924 55.4936 67.692C55.1336 68.436 54.6536 69.06 54.0536 69.564C53.4536 70.068 52.7816 70.44 52.0376 70.68C52.9736 70.848 53.7896 71.208 54.4856 71.76C55.2056 72.312 55.7576 73.02 56.1416 73.884C56.5496 74.724 56.7536 75.696 56.7536 76.8C56.7536 78.168 56.4176 79.44 55.7456 80.616C55.0736 81.768 54.0896 82.692 52.7936 83.388C51.4976 84.084 49.9136 84.432 48.0416 84.432ZM59.3903 84V80.436C60.9023 79.212 62.3783 77.988 63.8183 76.764C65.2583 75.54 66.5543 74.328 67.7063 73.128C68.8583 71.904 69.7583 70.716 70.4063 69.564C71.0783 68.412 71.4143 67.296 71.4143 66.216C71.4143 65.544 71.2943 64.932 71.0543 64.38C70.8143 63.804 70.4423 63.348 69.9383 63.012C69.4343 62.652 68.7623 62.472 67.9223 62.472C67.1063 62.472 66.4103 62.664 65.8343 63.048C65.2583 63.432 64.8263 63.948 64.5383 64.596C64.2503 65.22 64.1063 65.928 64.1063 66.72H59.4263C59.4743 64.872 59.8823 63.324 60.6503 62.076C61.4183 60.828 62.4503 59.904 63.7463 59.304C65.0423 58.68 66.4823 58.368 68.0663 58.368C69.8423 58.368 71.3303 58.704 72.5303 59.376C73.7543 60.024 74.6783 60.912 75.3023 62.04C75.9503 63.168 76.2743 64.464 76.2743 65.928C76.2743 67.032 76.0703 68.112 75.6623 69.168C75.2783 70.224 74.7263 71.256 74.0063 72.264C73.3103 73.248 72.5183 74.196 71.6303 75.108C70.7663 76.02 69.8543 76.896 68.8943 77.736C67.9583 78.552 67.0343 79.32 66.1223 80.04H76.8503V84H59.3903ZM78.2875 88.428L80.3395 79.284H85.0195L81.4555 88.428H78.2875ZM95.9185 84.432C94.1665 84.432 92.6785 84.096 91.4545 83.424C90.2545 82.728 89.3185 81.816 88.6465 80.688C87.9745 79.56 87.5785 78.36 87.4585 77.088H91.9585C92.1745 78.168 92.6185 78.996 93.2905 79.572C93.9865 80.148 94.8865 80.436 95.9905 80.436C97.0225 80.436 97.9105 80.124 98.6545 79.5C99.4225 78.876 100.022 77.94 100.454 76.692C100.91 75.444 101.162 73.884 101.21 72.012C101.21 71.988 101.21 71.952 101.21 71.904C101.21 71.856 101.21 71.82 101.21 71.796C100.85 72.42 100.346 72.984 99.6985 73.488C99.0505 73.992 98.3185 74.388 97.5025 74.676C96.6865 74.964 95.8345 75.108 94.9465 75.108C93.5545 75.108 92.2465 74.772 91.0225 74.1C89.7985 73.428 88.8025 72.48 88.0345 71.256C87.2905 70.032 86.9185 68.58 86.9185 66.9C86.9185 65.364 87.2905 63.948 88.0345 62.652C88.7785 61.356 89.8105 60.324 91.1305 59.556C92.4745 58.764 94.0225 58.368 95.7745 58.368C97.6945 58.368 99.3025 58.728 100.598 59.448C101.918 60.144 102.962 61.08 103.73 62.256C104.522 63.432 105.098 64.74 105.458 66.18C105.818 67.62 105.998 69.084 105.998 70.572C105.998 73.38 105.59 75.828 104.774 77.916C103.982 79.98 102.842 81.588 101.354 82.74C99.8665 83.868 98.0545 84.432 95.9185 84.432ZM96.0985 71.004C96.9625 71.004 97.7305 70.824 98.4025 70.464C99.0745 70.08 99.6145 69.576 100.022 68.952C100.43 68.304 100.634 67.584 100.634 66.792C100.634 65.976 100.43 65.244 100.022 64.596C99.6145 63.948 99.0625 63.444 98.3665 63.084C97.6945 62.724 96.9265 62.544 96.0625 62.544C95.1985 62.544 94.4185 62.724 93.7225 63.084C93.0505 63.444 92.5225 63.936 92.1385 64.56C91.7545 65.184 91.5625 65.916 91.5625 66.756C91.5625 67.596 91.7545 68.34 92.1385 68.988C92.5225 69.612 93.0505 70.104 93.7225 70.464C94.4185 70.824 95.2105 71.004 96.0985 71.004ZM118.08 84.432C116.352 84.432 114.78 84.12 113.364 83.496C111.972 82.872 110.856 81.996 110.016 80.868C109.2 79.74 108.792 78.432 108.792 76.944C108.792 75.912 108.96 74.976 109.296 74.136C109.656 73.296 110.148 72.552 110.772 71.904C111.42 71.256 112.188 70.764 113.076 70.428C111.972 69.924 111.084 69.204 110.412 68.268C109.74 67.332 109.404 66.276 109.404 65.1C109.404 63.924 109.728 62.82 110.376 61.788C111.048 60.756 112.02 59.928 113.292 59.304C114.588 58.68 116.184 58.368 118.08 58.368C120 58.368 121.596 58.68 122.868 59.304C124.164 59.928 125.136 60.756 125.784 61.788C126.432 62.82 126.756 63.924 126.756 65.1C126.756 66.252 126.408 67.308 125.712 68.268C125.04 69.204 124.164 69.924 123.084 70.428C123.972 70.788 124.728 71.292 125.352 71.94C126 72.564 126.504 73.296 126.864 74.136C127.224 74.976 127.404 75.912 127.404 76.944C127.404 78.432 126.984 79.74 126.144 80.868C125.304 81.996 124.188 82.872 122.796 83.496C121.404 84.12 119.832 84.432 118.08 84.432ZM118.08 80.364C119.592 80.364 120.72 80.004 121.464 79.284C122.232 78.564 122.616 77.652 122.616 76.548C122.616 75.324 122.208 74.364 121.392 73.668C120.6 72.948 119.496 72.588 118.08 72.588C116.664 72.588 115.548 72.948 114.732 73.668C113.916 74.364 113.508 75.324 113.508 76.548C113.508 77.652 113.892 78.564 114.66 79.284C115.452 80.004 116.592 80.364 118.08 80.364ZM118.08 69.024C119.304 69.024 120.252 68.712 120.924 68.088C121.62 67.464 121.968 66.66 121.968 65.676C121.968 64.62 121.62 63.804 120.924 63.228C120.252 62.628 119.304 62.328 118.08 62.328C116.856 62.328 115.908 62.628 115.236 63.228C114.564 63.804 114.228 64.632 114.228 65.712C114.228 66.672 114.564 67.464 115.236 68.088C115.908 68.712 116.856 69.024 118.08 69.024ZM141.432 84.432C139.08 84.432 137.064 83.88 135.384 82.776C133.704 81.672 132.408 80.148 131.496 78.204C130.608 76.236 130.164 73.968 130.164 71.4C130.164 68.832 130.608 66.576 131.496 64.632C132.408 62.664 133.704 61.128 135.384 60.024C137.064 58.92 139.068 58.368 141.396 58.368C143.748 58.368 145.752 58.92 147.408 60.024C149.088 61.128 150.372 62.664 151.26 64.632C152.148 66.576 152.592 68.832 152.592 71.4C152.592 73.968 152.148 76.236 151.26 78.204C150.372 80.148 149.088 81.672 147.408 82.776C145.752 83.88 143.76 84.432 141.432 84.432ZM141.396 80.076C142.644 80.076 143.736 79.728 144.672 79.032C145.608 78.312 146.34 77.304 146.868 76.008C147.396 74.712 147.66 73.176 147.66 71.4C147.66 69.6 147.396 68.064 146.868 66.792C146.34 65.496 145.608 64.5 144.672 63.804C143.736 63.108 142.644 62.76 141.396 62.76C140.172 62.76 139.08 63.108 138.12 63.804C137.184 64.5 136.452 65.496 135.924 66.792C135.396 68.064 135.132 69.6 135.132 71.4C135.132 73.176 135.396 74.712 135.924 76.008C136.452 77.304 137.184 78.312 138.12 79.032C139.08 79.728 140.172 80.076 141.396 80.076ZM153.662 88.428L155.714 79.284H160.394L156.83 88.428H153.662ZM172.697 84.432C170.777 84.432 169.157 84.084 167.837 83.388C166.541 82.668 165.497 81.72 164.705 80.544C163.937 79.368 163.373 78.06 163.013 76.62C162.653 75.18 162.473 73.716 162.473 72.228C162.473 69.396 162.869 66.948 163.661 64.884C164.477 62.82 165.629 61.224 167.117 60.096C168.629 58.944 170.429 58.368 172.517 58.368C174.293 58.368 175.793 58.716 177.017 59.412C178.241 60.084 179.189 60.984 179.861 62.112C180.533 63.216 180.929 64.416 181.049 65.712H176.513C176.321 64.632 175.877 63.804 175.181 63.228C174.485 62.652 173.585 62.364 172.481 62.364C171.473 62.364 170.585 62.676 169.817 63.3C169.049 63.924 168.437 64.86 167.981 66.108C167.549 67.356 167.297 68.928 167.225 70.824C167.225 70.848 167.225 70.872 167.225 70.896C167.225 70.92 167.225 70.956 167.225 71.004C167.609 70.356 168.125 69.792 168.773 69.312C169.421 68.808 170.153 68.412 170.969 68.124C171.785 67.836 172.637 67.692 173.525 67.692C174.941 67.692 176.249 68.028 177.449 68.7C178.673 69.372 179.657 70.32 180.401 71.544C181.169 72.768 181.553 74.22 181.553 75.9C181.553 77.412 181.181 78.828 180.437 80.148C179.693 81.444 178.649 82.488 177.305 83.28C175.985 84.048 174.449 84.432 172.697 84.432ZM172.409 80.256C173.273 80.256 174.041 80.076 174.713 79.716C175.409 79.356 175.949 78.864 176.333 78.24C176.717 77.592 176.909 76.86 176.909 76.044C176.909 75.18 176.717 74.436 176.333 73.812C175.949 73.188 175.409 72.696 174.713 72.336C174.041 71.976 173.261 71.796 172.373 71.796C171.533 71.796 170.765 71.988 170.069 72.372C169.397 72.732 168.857 73.236 168.449 73.884C168.065 74.508 167.873 75.216 167.873 76.008C167.873 76.824 168.065 77.556 168.449 78.204C168.857 78.828 169.397 79.332 170.069 79.716C170.765 80.076 171.545 80.256 172.409 80.256ZM195.327 84.432C192.975 84.432 190.959 83.88 189.279 82.776C187.599 81.672 186.303 80.148 185.391 78.204C184.503 76.236 184.059 73.968 184.059 71.4C184.059 68.832 184.503 66.576 185.391 64.632C186.303 62.664 187.599 61.128 189.279 60.024C190.959 58.92 192.963 58.368 195.291 58.368C197.643 58.368 199.647 58.92 201.303 60.024C202.983 61.128 204.267 62.664 205.155 64.632C206.043 66.576 206.487 68.832 206.487 71.4C206.487 73.968 206.043 76.236 205.155 78.204C204.267 80.148 202.983 81.672 201.303 82.776C199.647 83.88 197.655 84.432 195.327 84.432ZM195.291 80.076C196.539 80.076 197.631 79.728 198.567 79.032C199.503 78.312 200.235 77.304 200.763 76.008C201.291 74.712 201.555 73.176 201.555 71.4C201.555 69.6 201.291 68.064 200.763 66.792C200.235 65.496 199.503 64.5 198.567 63.804C197.631 63.108 196.539 62.76 195.291 62.76C194.067 62.76 192.975 63.108 192.015 63.804C191.079 64.5 190.347 65.496 189.819 66.792C189.291 68.064 189.027 69.6 189.027 71.4C189.027 73.176 189.291 74.712 189.819 76.008C190.347 77.304 191.079 78.312 192.015 79.032C192.975 79.728 194.067 80.076 195.291 80.076ZM221.327 84V79.428H208.943V75.576L218.915 58.8H226.151V75.216H229.427V79.428H226.151V84H221.327ZM214.127 75.216H221.615V62.364H221.507L214.127 75.216Z" fill="#1E1E1E"/>
<path d="M21.228 116.168C20.5093 116.168 19.8793 116.042 19.338 115.79C18.7967 115.538 18.372 115.179 18.064 114.712C17.7653 114.245 17.6113 113.69 17.602 113.046H19.17C19.1793 113.569 19.3613 114.012 19.716 114.376C20.0707 114.74 20.57 114.922 21.214 114.922C21.7833 114.922 22.2267 114.787 22.544 114.516C22.8707 114.236 23.034 113.881 23.034 113.452C23.034 113.107 22.9547 112.827 22.796 112.612C22.6467 112.397 22.4367 112.22 22.166 112.08C21.9047 111.94 21.6013 111.814 21.256 111.702C20.9107 111.59 20.5467 111.469 20.164 111.338C19.408 111.086 18.8387 110.759 18.456 110.358C18.0827 109.957 17.896 109.429 17.896 108.776C17.8867 108.225 18.0127 107.745 18.274 107.334C18.5447 106.923 18.918 106.606 19.394 106.382C19.8793 106.149 20.444 106.032 21.088 106.032C21.7227 106.032 22.278 106.149 22.754 106.382C23.2393 106.615 23.6173 106.942 23.888 107.362C24.1587 107.773 24.2987 108.253 24.308 108.804H22.74C22.74 108.552 22.6747 108.314 22.544 108.09C22.4133 107.857 22.222 107.665 21.97 107.516C21.718 107.367 21.41 107.292 21.046 107.292C20.5793 107.283 20.192 107.399 19.884 107.642C19.5853 107.885 19.436 108.221 19.436 108.65C19.436 109.033 19.548 109.327 19.772 109.532C19.996 109.737 20.304 109.91 20.696 110.05C21.088 110.181 21.536 110.335 22.04 110.512C22.5253 110.671 22.9593 110.862 23.342 111.086C23.7247 111.31 24.028 111.604 24.252 111.968C24.4853 112.332 24.602 112.794 24.602 113.354C24.602 113.849 24.476 114.311 24.224 114.74C23.972 115.16 23.594 115.505 23.09 115.776C22.586 116.037 21.9653 116.168 21.228 116.168ZM27.0085 107.74C26.7285 107.74 26.4951 107.656 26.3085 107.488C26.1311 107.311 26.0425 107.091 26.0425 106.83C26.0425 106.569 26.1311 106.354 26.3085 106.186C26.4951 106.009 26.7285 105.92 27.0085 105.92C27.2885 105.92 27.5171 106.009 27.6945 106.186C27.8811 106.354 27.9745 106.569 27.9745 106.83C27.9745 107.091 27.8811 107.311 27.6945 107.488C27.5171 107.656 27.2885 107.74 27.0085 107.74ZM26.2665 116V109.056H27.7505V116H26.2665ZM29.7095 116V109.056H31.0255L31.1375 110.274C31.3522 109.845 31.6648 109.509 32.0755 109.266C32.4955 109.014 32.9762 108.888 33.5175 108.888C34.3575 108.888 35.0155 109.149 35.4915 109.672C35.9768 110.195 36.2195 110.974 36.2195 112.01V116H34.7495V112.164C34.7495 110.82 34.1988 110.148 33.0975 110.148C32.5468 110.148 32.0895 110.344 31.7255 110.736C31.3708 111.128 31.1935 111.688 31.1935 112.416V116H29.7095ZM41.2573 116.168C40.576 116.168 39.9646 116.014 39.4233 115.706C38.8913 115.398 38.4713 114.973 38.1633 114.432C37.8646 113.881 37.7153 113.247 37.7153 112.528C37.7153 111.809 37.8646 111.179 38.1633 110.638C38.4713 110.087 38.8913 109.658 39.4233 109.35C39.9646 109.042 40.576 108.888 41.2573 108.888C42.116 108.888 42.8346 109.112 43.4133 109.56C44.0013 110.008 44.3793 110.615 44.5473 111.38H42.9933C42.9 110.997 42.6946 110.699 42.3773 110.484C42.06 110.269 41.6866 110.162 41.2573 110.162C40.8933 110.162 40.5573 110.255 40.2493 110.442C39.9413 110.619 39.694 110.885 39.5073 111.24C39.3206 111.585 39.2273 112.015 39.2273 112.528C39.2273 113.041 39.3206 113.475 39.5073 113.83C39.694 114.175 39.9413 114.441 40.2493 114.628C40.5573 114.815 40.8933 114.908 41.2573 114.908C41.6866 114.908 42.06 114.801 42.3773 114.586C42.6946 114.371 42.9 114.068 42.9933 113.676H44.5473C44.3886 114.423 44.0153 115.025 43.4273 115.482C42.8393 115.939 42.116 116.168 41.2573 116.168ZM49.4048 116.168C48.7234 116.168 48.1168 116.019 47.5848 115.72C47.0621 115.412 46.6514 114.987 46.3528 114.446C46.0541 113.905 45.9048 113.275 45.9048 112.556C45.9048 111.828 46.0494 111.189 46.3388 110.638C46.6374 110.087 47.0481 109.658 47.5708 109.35C48.1028 109.042 48.7188 108.888 49.4188 108.888C50.1001 108.888 50.6928 109.042 51.1968 109.35C51.7008 109.649 52.0928 110.05 52.3728 110.554C52.6528 111.058 52.7928 111.613 52.7928 112.22C52.7928 112.313 52.7881 112.416 52.7788 112.528C52.7788 112.631 52.7741 112.747 52.7648 112.878H47.3608C47.4074 113.55 47.6268 114.063 48.0188 114.418C48.4201 114.763 48.8821 114.936 49.4048 114.936C49.8248 114.936 50.1748 114.843 50.4548 114.656C50.7441 114.46 50.9588 114.199 51.0988 113.872H52.5828C52.3961 114.525 52.0228 115.071 51.4628 115.51C50.9121 115.949 50.2261 116.168 49.4048 116.168ZM49.4048 110.106C48.9101 110.106 48.4714 110.255 48.0888 110.554C47.7061 110.843 47.4728 111.282 47.3888 111.87H51.3088C51.2808 111.329 51.0894 110.899 50.7348 110.582C50.3801 110.265 49.9368 110.106 49.4048 110.106ZM57.8599 116V105.92H59.3439V116H57.8599ZM63.5752 116.168C62.9872 116.168 62.5018 116.07 62.1192 115.874C61.7365 115.678 61.4518 115.421 61.2652 115.104C61.0785 114.777 60.9852 114.423 60.9852 114.04C60.9852 113.368 61.2465 112.836 61.7692 112.444C62.2918 112.052 63.0385 111.856 64.0092 111.856H65.8292V111.73C65.8292 111.189 65.6798 110.783 65.3812 110.512C65.0918 110.241 64.7138 110.106 64.2472 110.106C63.8365 110.106 63.4772 110.209 63.1692 110.414C62.8705 110.61 62.6885 110.904 62.6232 111.296H61.1392C61.1858 110.792 61.3538 110.363 61.6432 110.008C61.9418 109.644 62.3152 109.369 62.7632 109.182C63.2205 108.986 63.7198 108.888 64.2612 108.888C65.2318 108.888 65.9832 109.145 66.5152 109.658C67.0472 110.162 67.3132 110.853 67.3132 111.73V116H66.0252L65.8992 114.81C65.7032 115.193 65.4185 115.515 65.0452 115.776C64.6718 116.037 64.1818 116.168 63.5752 116.168ZM63.8692 114.964C64.2705 114.964 64.6065 114.871 64.8772 114.684C65.1572 114.488 65.3718 114.231 65.5212 113.914C65.6798 113.597 65.7778 113.247 65.8152 112.864H64.1632C63.5752 112.864 63.1552 112.967 62.9032 113.172C62.6605 113.377 62.5392 113.634 62.5392 113.942C62.5392 114.259 62.6558 114.511 62.8892 114.698C63.1318 114.875 63.4585 114.964 63.8692 114.964ZM71.8155 116.168C70.9381 116.168 70.2148 115.953 69.6455 115.524C69.0761 115.095 68.7495 114.525 68.6655 113.816H70.1635C70.2381 114.133 70.4155 114.409 70.6955 114.642C70.9755 114.866 71.3441 114.978 71.8015 114.978C72.2495 114.978 72.5761 114.885 72.7815 114.698C72.9868 114.511 73.0895 114.297 73.0895 114.054C73.0895 113.699 72.9448 113.461 72.6555 113.34C72.3755 113.209 71.9835 113.093 71.4795 112.99C71.0875 112.906 70.6955 112.794 70.3035 112.654C69.9208 112.514 69.5988 112.318 69.3375 112.066C69.0855 111.805 68.9595 111.455 68.9595 111.016C68.9595 110.409 69.1928 109.905 69.6595 109.504C70.1261 109.093 70.7795 108.888 71.6195 108.888C72.3941 108.888 73.0195 109.075 73.4955 109.448C73.9808 109.821 74.2655 110.349 74.3495 111.03H72.9215C72.8748 110.731 72.7348 110.498 72.5015 110.33C72.2775 110.162 71.9741 110.078 71.5915 110.078C71.2181 110.078 70.9288 110.157 70.7235 110.316C70.5181 110.465 70.4155 110.661 70.4155 110.904C70.4155 111.147 70.5555 111.338 70.8355 111.478C71.1248 111.618 71.5028 111.744 71.9695 111.856C72.4361 111.959 72.8655 112.08 73.2575 112.22C73.6588 112.351 73.9808 112.547 74.2235 112.808C74.4661 113.069 74.5875 113.452 74.5875 113.956C74.5968 114.591 74.3495 115.118 73.8455 115.538C73.3508 115.958 72.6741 116.168 71.8155 116.168ZM78.8598 116C78.1784 116 77.6371 115.837 77.2358 115.51C76.8344 115.174 76.6338 114.581 76.6338 113.732V110.302H75.4438V109.056H76.6338L76.8158 107.292H78.1178V109.056H80.0778V110.302H78.1178V113.732C78.1178 114.115 78.1971 114.381 78.3558 114.53C78.5238 114.67 78.8084 114.74 79.2098 114.74H80.0078V116H78.8598ZM85.1353 116V109.056H86.4513L86.5773 110.036C86.8013 109.681 87.0953 109.401 87.4593 109.196C87.8326 108.991 88.2619 108.888 88.7473 108.888C89.8486 108.888 90.6139 109.322 91.0433 110.19C91.2953 109.789 91.6313 109.471 92.0513 109.238C92.4806 109.005 92.9426 108.888 93.4373 108.888C94.3053 108.888 94.9866 109.149 95.4813 109.672C95.9759 110.195 96.2233 110.974 96.2233 112.01V116H94.7393V112.164C94.7393 110.82 94.2259 110.148 93.1993 110.148C92.6766 110.148 92.2473 110.344 91.9113 110.736C91.5846 111.128 91.4213 111.688 91.4213 112.416V116H89.9373V112.164C89.9373 110.82 89.4193 110.148 88.3833 110.148C87.8699 110.148 87.4453 110.344 87.1093 110.736C86.7826 111.128 86.6193 111.688 86.6193 112.416V116H85.1353ZM101.207 116.168C100.545 116.168 99.9475 116.019 99.4155 115.72C98.8928 115.412 98.4775 114.987 98.1695 114.446C97.8615 113.895 97.7075 113.256 97.7075 112.528C97.7075 111.8 97.8615 111.165 98.1695 110.624C98.4868 110.073 98.9115 109.649 99.4435 109.35C99.9755 109.042 100.568 108.888 101.221 108.888C101.884 108.888 102.477 109.042 102.999 109.35C103.531 109.649 103.951 110.073 104.259 110.624C104.577 111.165 104.735 111.8 104.735 112.528C104.735 113.256 104.577 113.895 104.259 114.446C103.951 114.987 103.531 115.412 102.999 115.72C102.467 116.019 101.87 116.168 101.207 116.168ZM101.207 114.894C101.562 114.894 101.889 114.805 102.187 114.628C102.495 114.451 102.743 114.189 102.929 113.844C103.116 113.489 103.209 113.051 103.209 112.528C103.209 112.005 103.116 111.571 102.929 111.226C102.752 110.871 102.509 110.605 102.201 110.428C101.903 110.251 101.576 110.162 101.221 110.162C100.867 110.162 100.535 110.251 100.227 110.428C99.9288 110.605 99.6862 110.871 99.4995 111.226C99.3128 111.571 99.2195 112.005 99.2195 112.528C99.2195 113.051 99.3128 113.489 99.4995 113.844C99.6862 114.189 99.9288 114.451 100.227 114.628C100.526 114.805 100.853 114.894 101.207 114.894ZM106.34 116V109.056H107.656L107.768 110.274C107.983 109.845 108.296 109.509 108.706 109.266C109.126 109.014 109.607 108.888 110.148 108.888C110.988 108.888 111.646 109.149 112.122 109.672C112.608 110.195 112.85 110.974 112.85 112.01V116H111.38V112.164C111.38 110.82 110.83 110.148 109.728 110.148C109.178 110.148 108.72 110.344 108.356 110.736C108.002 111.128 107.824 111.688 107.824 112.416V116H106.34ZM117.51 116C116.829 116 116.287 115.837 115.886 115.51C115.485 115.174 115.284 114.581 115.284 113.732V110.302H114.094V109.056H115.284L115.466 107.292H116.768V109.056H118.728V110.302H116.768V113.732C116.768 114.115 116.847 114.381 117.006 114.53C117.174 114.67 117.459 114.74 117.86 114.74H118.658V116H117.51ZM120.258 116V105.92H121.742V110.176C121.976 109.775 122.298 109.462 122.708 109.238C123.128 109.005 123.59 108.888 124.094 108.888C124.925 108.888 125.578 109.149 126.054 109.672C126.53 110.195 126.768 110.974 126.768 112.01V116H125.298V112.164C125.298 110.82 124.762 110.148 123.688 110.148C123.128 110.148 122.662 110.344 122.288 110.736C121.924 111.128 121.742 111.688 121.742 112.416V116H120.258Z" fill="#3C3C3C"/>
<path d="M26.5 136H30.5V132" stroke="#0D805D" stroke-linecap="round" stroke-linejoin="round"/>
<path d="M30.5 136L24.85 130.35C24.7565 130.258 24.6309 130.207 24.5 130.207C24.3691 130.207 24.2435 130.258 24.15 130.35L21.85 132.65C21.7565 132.742 21.6309 132.793 21.5 132.793C21.3691 132.793 21.2435 132.742 21.15 132.65L17.5 129" stroke="#0D805D" stroke-linecap="round" stroke-linejoin="round"/>
<path d="M40.024 129.268L42.604 127.132H43.672V136H42.304V128.992L40.768 130.24L40.024 129.268ZM45.0098 128.38V127.132H50.6498V128.008L47.2898 136H45.8258L49.1018 128.38H45.0098ZM55.135 130.72C54.687 131.144 54.155 131.356 53.539 131.356C52.915 131.356 52.379 131.144 51.931 130.72C51.491 130.288 51.271 129.772 51.271 129.172C51.271 128.572 51.491 128.056 51.931 127.624C52.379 127.192 52.915 126.976 53.539 126.976C54.163 126.976 54.695 127.192 55.135 127.624C55.575 128.056 55.795 128.572 55.795 129.172C55.795 129.772 55.575 130.288 55.135 130.72ZM53.575 136H52.243L58.747 127.132H60.103L53.575 136ZM53.539 130.384C53.875 130.384 54.159 130.268 54.391 130.036C54.631 129.804 54.751 129.516 54.751 129.172C54.751 128.828 54.631 128.54 54.391 128.308C54.159 128.076 53.875 127.96 53.539 127.96C53.195 127.96 52.903 128.076 52.663 128.308C52.431 128.54 52.315 128.828 52.315 129.172C52.315 129.516 52.431 129.804 52.663 130.036C52.903 130.268 53.195 130.384 53.539 130.384ZM58.867 136.144C58.243 136.144 57.707 135.932 57.259 135.508C56.819 135.092 56.599 134.58 56.599 133.972C56.599 133.372 56.819 132.856 57.259 132.424C57.707 131.992 58.243 131.776 58.867 131.776C59.491 131.776 60.023 131.992 60.463 132.424C60.911 132.856 61.135 133.372 61.135 133.972C61.135 134.572 60.911 135.084 60.463 135.508C60.015 135.932 59.483 136.144 58.867 136.144ZM60.091 133.972C60.091 133.62 59.971 133.328 59.731 133.096C59.499 132.864 59.211 132.748 58.867 132.748C58.523 132.748 58.231 132.864 57.991 133.096C57.759 133.328 57.643 133.62 57.643 133.972C57.643 134.308 57.763 134.592 58.003 134.824C58.243 135.056 58.531 135.172 58.867 135.172C59.203 135.172 59.491 135.056 59.731 134.824C59.971 134.592 60.091 134.308 60.091 133.972Z" fill="#0D805D"/>
</svg>
