<svg width="252" height="138" viewBox="0 0 252 138" fill="none" xmlns="http://www.w3.org/2000/svg">
<rect x="0.5" y="0.5" width="251" height="137" rx="4.5" fill="white"/>
<rect x="0.5" y="0.5" width="251" height="137" rx="4.5" stroke="#F1F2F3"/>
<path d="M18.136 42V30.8H22.056C22.9307 30.8 23.656 30.9493 24.232 31.248C24.808 31.536 25.2347 31.936 25.512 32.448C25.8 32.9493 25.944 33.52 25.944 34.16C25.944 34.768 25.8053 35.328 25.528 35.84C25.2613 36.3413 24.84 36.7413 24.264 37.04C23.688 37.3387 22.952 37.488 22.056 37.488H19.832V42H18.136ZM19.832 36.096H21.976C22.776 36.096 23.3467 35.9253 23.688 35.584C24.04 35.232 24.216 34.7573 24.216 34.16C24.216 33.5413 24.04 33.0613 23.688 32.72C23.3467 32.368 22.776 32.192 21.976 32.192H19.832V36.096ZM27.5564 42V30.48H29.2524V42H27.5564ZM34.0881 42.192C33.4161 42.192 32.8615 42.08 32.4241 41.856C31.9868 41.632 31.6615 41.3387 31.4481 40.976C31.2348 40.6027 31.1281 40.1973 31.1281 39.76C31.1281 38.992 31.4268 38.384 32.0241 37.936C32.6215 37.488 33.4748 37.264 34.5841 37.264H36.6641V37.12C36.6641 36.5013 36.4935 36.0373 36.1521 35.728C35.8215 35.4187 35.3895 35.264 34.8561 35.264C34.3868 35.264 33.9761 35.3813 33.6241 35.616C33.2828 35.84 33.0748 36.176 33.0001 36.624H31.3041C31.3575 36.048 31.5495 35.5573 31.8801 35.152C32.2215 34.736 32.6481 34.4213 33.1601 34.208C33.6828 33.984 34.2535 33.872 34.8721 33.872C35.9815 33.872 36.8401 34.1653 37.4481 34.752C38.0561 35.328 38.3601 36.1173 38.3601 37.12V42H36.8881L36.7441 40.64C36.5201 41.0773 36.1948 41.4453 35.7681 41.744C35.3415 42.0427 34.7815 42.192 34.0881 42.192ZM34.4241 40.816C34.8828 40.816 35.2668 40.7093 35.5761 40.496C35.8961 40.272 36.1415 39.9787 36.3121 39.616C36.4935 39.2533 36.6055 38.8533 36.6481 38.416H34.7601C34.0881 38.416 33.6081 38.5333 33.3201 38.768C33.0428 39.0027 32.9041 39.296 32.9041 39.648C32.9041 40.0107 33.0375 40.2987 33.3041 40.512C33.5815 40.7147 33.9548 40.816 34.4241 40.816ZM40.3376 42V34.064H41.8416L41.9696 35.456C42.215 34.9653 42.5723 34.5813 43.0416 34.304C43.5216 34.016 44.071 33.872 44.6896 33.872C45.6496 33.872 46.4016 34.1707 46.9456 34.768C47.5003 35.3653 47.7776 36.256 47.7776 37.44V42H46.0976V37.616C46.0976 36.08 45.4683 35.312 44.2096 35.312C43.5803 35.312 43.0576 35.536 42.6416 35.984C42.2363 36.432 42.0336 37.072 42.0336 37.904V42H40.3376ZM49.7751 42V34.064H51.2791L51.4071 35.456C51.6525 34.9653 52.0098 34.5813 52.4791 34.304C52.9591 34.016 53.5085 33.872 54.1271 33.872C55.0871 33.872 55.8391 34.1707 56.3831 34.768C56.9378 35.3653 57.2151 36.256 57.2151 37.44V42H55.5351V37.616C55.5351 36.08 54.9058 35.312 53.6471 35.312C53.0178 35.312 52.4951 35.536 52.0791 35.984C51.6738 36.432 51.4711 37.072 51.4711 37.904V42H49.7751ZM62.9246 42.192C62.146 42.192 61.4526 42.0213 60.8446 41.68C60.2473 41.328 59.778 40.8427 59.4366 40.224C59.0953 39.6053 58.9246 38.8853 58.9246 38.064C58.9246 37.232 59.09 36.5013 59.4206 35.872C59.762 35.2427 60.2313 34.752 60.8286 34.4C61.4366 34.048 62.1406 33.872 62.9406 33.872C63.7193 33.872 64.3966 34.048 64.9726 34.4C65.5486 34.7413 65.9966 35.2 66.3166 35.776C66.6366 36.352 66.7966 36.9867 66.7966 37.68C66.7966 37.7867 66.7913 37.904 66.7806 38.032C66.7806 38.1493 66.7753 38.2827 66.7646 38.432H60.5886C60.642 39.2 60.8926 39.7867 61.3406 40.192C61.7993 40.5867 62.3273 40.784 62.9246 40.784C63.4046 40.784 63.8046 40.6773 64.1246 40.464C64.4553 40.24 64.7006 39.9413 64.8606 39.568H66.5566C66.3433 40.3147 65.9166 40.9387 65.2766 41.44C64.6473 41.9413 63.8633 42.192 62.9246 42.192ZM62.9246 35.264C62.3593 35.264 61.858 35.4347 61.4206 35.776C60.9833 36.1067 60.7166 36.608 60.6206 37.28H65.1006C65.0686 36.6613 64.85 36.1707 64.4446 35.808C64.0393 35.4453 63.5326 35.264 62.9246 35.264ZM72.1724 42.192C71.4044 42.192 70.727 42.0107 70.1404 41.648C69.5537 41.2853 69.095 40.7893 68.7644 40.16C68.4337 39.5307 68.2684 38.816 68.2684 38.016C68.2684 37.216 68.4337 36.5067 68.7644 35.888C69.095 35.2587 69.5537 34.768 70.1404 34.416C70.7377 34.0533 71.4204 33.872 72.1884 33.872C72.8177 33.872 73.367 33.9947 73.8364 34.24C74.3164 34.4853 74.6897 34.832 74.9564 35.28V30.48H76.6524V42H75.1324L74.9564 40.768C74.7004 41.1413 74.3484 41.472 73.9004 41.76C73.4524 42.048 72.8764 42.192 72.1724 42.192ZM72.4764 40.72C73.2017 40.72 73.7937 40.4693 74.2524 39.968C74.7217 39.4667 74.9564 38.8213 74.9564 38.032C74.9564 37.232 74.7217 36.5867 74.2524 36.096C73.7937 35.5947 73.2017 35.344 72.4764 35.344C71.751 35.344 71.1537 35.5947 70.6844 36.096C70.215 36.5867 69.9804 37.232 69.9804 38.032C69.9804 38.5547 70.087 39.0187 70.3004 39.424C70.5137 39.8293 70.807 40.1493 71.1804 40.384C71.5644 40.608 71.9964 40.72 72.4764 40.72Z" fill="#2F2B2B" fill-opacity="0.69"/>
<rect x="201" y="19" width="34" height="35" rx="4" fill="#D6D6D7"/>
<path d="M222 26H214C210.5 26 209 28 209 31V41C209 44 210.5 46 214 46H222C225.5 46 227 44 227 41V31C227 28 225.5 26 222 26ZM214 36.25H218C218.41 36.25 218.75 36.59 218.75 37C218.75 37.41 218.41 37.75 218 37.75H214C213.59 37.75 213.25 37.41 213.25 37C213.25 36.59 213.59 36.25 214 36.25ZM222 41.75H214C213.59 41.75 213.25 41.41 213.25 41C213.25 40.59 213.59 40.25 214 40.25H222C222.41 40.25 222.75 40.59 222.75 41C222.75 41.41 222.41 41.75 222 41.75ZM224.5 33.25H222.5C220.98 33.25 219.75 32.02 219.75 30.5V28.5C219.75 28.09 220.09 27.75 220.5 27.75C220.91 27.75 221.25 28.09 221.25 28.5V30.5C221.25 31.19 221.81 31.75 222.5 31.75H224.5C224.91 31.75 225.25 32.09 225.25 32.5C225.25 32.91 224.91 33.25 224.5 33.25Z" fill="#6C6C6F"/>
<path d="M24.2 104V76.3L18.45 77.65V72.75L26.9 69H30.85V104H24.2ZM50.1863 104.6C47.6197 104.6 45.403 104.15 43.5363 103.25C41.703 102.35 40.253 101.117 39.1863 99.55C38.153 97.95 37.553 96.15 37.3863 94.15H43.6363C43.9363 95.5833 44.6697 96.7833 45.8363 97.75C47.003 98.6833 48.453 99.15 50.1863 99.15C52.053 99.15 53.5697 98.4667 54.7363 97.1C55.9363 95.7333 56.5363 94.0333 56.5363 92C56.5363 89.9 55.9363 88.2333 54.7363 87C53.5697 85.7667 52.0863 85.15 50.2863 85.15C48.7863 85.15 47.4863 85.5167 46.3863 86.25C45.2863 86.9833 44.503 87.9 44.0363 89H37.8863L40.8863 69H60.2863V74.6H45.6863L44.0863 82.7C44.8197 81.9 45.8197 81.25 47.0863 80.75C48.353 80.2167 49.7697 79.95 51.3363 79.95C53.8363 79.95 55.9197 80.5167 57.5863 81.65C59.253 82.75 60.5197 84.2167 61.3863 86.05C62.253 87.85 62.6863 89.8167 62.6863 91.95C62.6863 94.3833 62.153 96.55 61.0863 98.45C60.053 100.35 58.5863 101.85 56.6863 102.95C54.8197 104.05 52.653 104.6 50.1863 104.6Z" fill="#1E1E1E"/>
</svg>
