<svg width="159" height="158" viewBox="0 0 159 158" fill="none" xmlns="http://www.w3.org/2000/svg">
<circle cx="79.4998" cy="79.1052" r="78.6052" fill="#23A26D" fill-opacity="0.12"/>
<path d="M78.0956 41.6746C57.4711 41.6746 40.6646 58.4811 40.6646 79.1056C40.6646 99.7301 57.4711 116.537 78.0956 116.537C98.7201 116.537 115.527 99.7301 115.527 79.1056C115.527 58.4811 98.7201 41.6746 78.0956 41.6746ZM95.9877 70.4965L74.7642 91.7199C74.2402 92.2439 73.529 92.5434 72.7804 92.5434C72.0318 92.5434 71.3206 92.2439 70.7966 91.7199L60.2036 81.1269C59.1181 80.0414 59.1181 78.2447 60.2036 77.1592C61.2891 76.0737 63.0858 76.0737 64.1713 77.1592L72.7804 85.7683L92.02 66.5288C93.1055 65.4433 94.9021 65.4433 95.9877 66.5288C97.0732 67.6143 97.0732 69.3735 95.9877 70.4965Z" fill="#23A26D"/>
</svg>
